<svg width="50" height="50" viewBox="0 0 50 50" fill="none" xmlns="http://www.w3.org/2000/svg">
<g clip-path="url(#clip0_2397_1885)">
<path d="M13.5263 43.3203L6.59268 43.3118H6.5918C6.39755 43.3117 6.21121 43.3888 6.07377 43.526C5.93633 43.6633 5.85905 43.8495 5.85894 44.0438C5.85882 44.2381 5.93587 44.4244 6.07315 44.5618C6.21042 44.6993 6.39667 44.7765 6.59092 44.7767L13.5245 44.7852H13.5254C13.7196 44.7853 13.906 44.7082 14.0434 44.5709C14.1809 44.4337 14.2581 44.2474 14.2583 44.0532C14.2584 43.8589 14.1813 43.6726 14.044 43.5351C13.9068 43.3977 13.7205 43.3204 13.5263 43.3203ZM49.0031 31.0662L43.966 26.0292C43.3663 25.4286 42.5631 25.0748 41.7152 25.0377L39.4574 22.7799C40.8777 20.5307 41.491 17.8655 41.1966 15.2218C40.9023 12.5781 39.7177 10.1131 37.8374 8.23145C37.664 8.05801 37.4864 7.89144 37.3046 7.73174V3.66211C37.3035 2.69121 36.9173 1.76038 36.2308 1.07384C35.5443 0.3873 34.6135 0.00111145 33.6426 0L3.66211 0C2.69119 0.00108561 1.76035 0.387262 1.07381 1.07381C0.387262 1.76035 0.00108561 2.69119 0 3.66211L0 46.3379C0.00108561 47.3088 0.387262 48.2396 1.07381 48.9262C1.76035 49.6127 2.69119 49.9989 3.66211 50H28.6421C28.6455 50 28.6489 49.9995 28.6522 49.9995C28.6556 49.9995 28.6588 50 28.6621 50C28.7815 50.0001 28.8991 49.9709 29.0047 49.9151C29.1102 49.8592 29.2005 49.7784 29.2676 49.6796L37.0861 41.9823C37.1554 41.9142 37.2103 41.8329 37.2478 41.7433C37.2854 41.6537 37.3047 41.5575 37.3047 41.4604V27.7354L38.1607 28.5912C38.1977 29.4394 38.5516 30.2429 39.1523 30.8428L44.1895 35.8799C44.5055 36.196 44.8808 36.4467 45.2937 36.6177C45.7067 36.7888 46.1493 36.8768 46.5963 36.8768C47.0433 36.8768 47.4859 36.7888 47.8989 36.6177C48.3119 36.4466 48.6871 36.1959 49.0032 35.8798C49.3192 35.5638 49.57 35.1885 49.741 34.7755C49.9121 34.3626 50.0001 33.92 50.0001 33.473C50.0001 33.026 49.9121 32.5834 49.741 32.1704C49.5699 31.7574 49.3192 31.3822 49.0031 31.0661V31.0662ZM29.3945 47.499V44.3848C29.3952 43.8022 29.6269 43.2437 30.0388 42.8318C30.4508 42.4199 31.0093 42.1882 31.5918 42.1875H34.7896L29.3945 47.499ZM35.8398 40.7227H31.5918C30.6209 40.7237 29.69 41.1099 29.0035 41.7965C28.317 42.483 27.9308 43.4138 27.9297 44.3848V48.5352H3.66211C3.07956 48.5345 2.52107 48.3028 2.10915 47.8909C1.69723 47.4789 1.46552 46.9204 1.46484 46.3379V3.66211C1.46552 3.07956 1.69723 2.52107 2.10915 2.10915C2.52107 1.69723 3.07956 1.46552 3.66211 1.46484H33.6426C34.2251 1.46552 34.7836 1.69723 35.1955 2.10915C35.6075 2.52107 35.8392 3.07956 35.8398 3.66211V6.62891C34.5386 5.80209 33.0869 5.24017 31.5681 4.97535C30.0493 4.71052 28.4931 4.748 26.9888 5.08562C25.4845 5.42325 24.0616 6.05439 22.8016 6.94289C21.5416 7.83138 20.4693 8.95976 19.6462 10.2634L5.12744 10.2539H5.12695C4.9327 10.2538 4.74638 10.3309 4.60898 10.4683C4.47158 10.6056 4.39435 10.7918 4.39429 10.9861C4.39422 11.1803 4.47133 11.3667 4.60864 11.5041C4.74595 11.6415 4.93221 11.7187 5.12646 11.7188L18.8628 11.7277C18.6503 12.2032 18.4699 12.6924 18.3228 13.192L5.12744 13.1836C4.93319 13.1835 4.74685 13.2605 4.6094 13.3978C4.47195 13.535 4.39466 13.7213 4.39453 13.9155C4.3944 14.1098 4.47144 14.2961 4.60871 14.4336C4.74597 14.571 4.93221 14.6483 5.12646 14.6484L17.993 14.6566C17.9157 15.1416 17.8687 15.6308 17.8523 16.1216L5.12754 16.1133C4.93329 16.1132 4.74694 16.1902 4.6095 16.3275C4.47205 16.4647 4.39476 16.651 4.39463 16.8452C4.3945 17.0395 4.47154 17.2258 4.60881 17.3633C4.74607 17.5007 4.93231 17.578 5.12656 17.5781L17.8943 17.5864C18.08 19.6086 18.7874 21.5479 19.9473 23.2146C21.1073 24.8813 22.68 26.2184 24.5117 27.095V34.5294L21.582 34.528V27.55C21.5814 26.9675 21.3496 26.409 20.9377 25.997C20.5258 25.5851 19.9673 25.3534 19.3848 25.3527H17.9199C17.3374 25.3534 16.7789 25.5851 16.367 25.997C15.955 26.409 15.7233 26.9675 15.7227 27.55V34.5255L12.793 34.5242V30.4797C12.7923 29.8971 12.5606 29.3386 12.1487 28.9267C11.7367 28.5148 11.1782 28.2831 10.5957 28.2824H9.13086C8.54831 28.2831 7.98982 28.5148 7.5779 28.9267C7.16598 29.3386 6.93427 29.8971 6.93359 30.4797V34.5217L4.93193 34.5207H4.93164C4.73739 34.5207 4.55108 34.5978 4.4137 34.7351C4.27631 34.8725 4.19911 35.0587 4.19907 35.253C4.19903 35.4472 4.27616 35.6335 4.41349 35.7709C4.55082 35.9083 4.7371 35.9855 4.93135 35.9855L7.54658 35.9867C7.58604 35.9935 7.62598 35.997 7.66602 35.9973H12.0605C12.0961 35.997 12.1315 35.9942 12.1666 35.9888L16.3611 35.9906C16.3923 35.9948 16.4237 35.9971 16.4551 35.9973H20.8496C20.8766 35.9972 20.9036 35.9956 20.9304 35.9926L25.1887 35.9945C25.207 35.9959 25.2254 35.9973 25.2441 35.9973H29.6387C29.6442 35.9973 29.6496 35.9966 29.6551 35.9965L32.617 35.9978H32.6172C32.8114 35.9978 32.9977 35.9207 33.1351 35.7833C33.2725 35.646 33.3497 35.4597 33.3498 35.2655C33.3498 35.0712 33.2727 34.8849 33.1353 34.7475C32.998 34.6102 32.8117 34.5329 32.6175 34.5329L30.3711 34.5319V28.201C32.3159 28.0709 34.1967 27.4531 35.8398 26.4046V40.7227ZM20.1172 27.55V34.5274L17.1875 34.5262V27.55C17.1877 27.3558 17.2649 27.1696 17.4022 27.0323C17.5396 26.895 17.7257 26.8178 17.9199 26.8176H19.3848C19.579 26.8178 19.7651 26.895 19.9024 27.0323C20.0397 27.1696 20.117 27.3558 20.1172 27.55ZM11.3281 30.4797V34.5235L8.39844 34.5223V30.4797C8.39864 30.2855 8.47588 30.0993 8.61319 29.962C8.7505 29.8247 8.93667 29.7475 9.13086 29.7473H10.5957C10.7899 29.7475 10.9761 29.8247 11.1134 29.962C11.2507 30.0993 11.3279 30.2855 11.3281 30.4797ZM25.9766 34.53V27.675C26.9263 27.9778 27.9108 28.1581 28.9062 28.2113V34.5313L25.9766 34.53ZM36.8017 23.7625C36.4295 24.1347 36.0296 24.4781 35.6054 24.7897C35.5976 24.7947 35.5903 24.8007 35.5828 24.8061C34.1545 25.8421 32.4836 26.493 30.7309 26.6962C28.9781 26.8994 27.2026 26.648 25.5752 25.9662C25.5478 25.9523 25.5195 25.9402 25.4905 25.9299C23.5468 25.0908 21.9105 23.6704 20.8066 21.8639C19.7026 20.0574 19.185 17.9534 19.325 15.8409C19.465 13.7284 20.2557 11.7111 21.5884 10.0661C22.9211 8.42106 24.7305 7.22905 26.768 6.65381C28.8055 6.07857 30.9711 6.14831 32.9673 6.85345C34.9636 7.5586 36.6925 8.86456 37.9166 10.5919C39.1407 12.3193 39.8 14.3833 39.8038 16.5004C39.8076 18.6175 39.1557 20.6839 37.9378 22.4156C37.9234 22.4336 37.9099 22.4523 37.8974 22.4716C37.5679 22.931 37.2014 23.3627 36.8017 23.7625ZM38.5285 26.8875L37.1086 25.4682C37.3591 25.256 37.602 25.0327 37.8374 24.7982C38.1006 24.5351 38.3495 24.2618 38.5841 23.9783L40.011 25.4053C39.3728 25.7305 38.8539 26.2494 38.5286 26.8876L38.5285 26.8875ZM47.9673 34.8441C47.7873 35.0242 47.5735 35.167 47.3383 35.2645C47.103 35.362 46.8509 35.4121 46.5963 35.4121C46.3417 35.4121 46.0895 35.362 45.8543 35.2645C45.6191 35.167 45.4053 35.0242 45.2253 34.8441L40.1882 29.807C39.8291 29.4425 39.6287 28.9508 39.6306 28.4391C39.6325 27.9274 39.8366 27.4372 40.1985 27.0754C40.5603 26.7136 41.0505 26.5095 41.5622 26.5076C42.0738 26.5056 42.5655 26.7061 42.9301 27.0651L47.9672 32.1021C48.3303 32.466 48.5342 32.9591 48.5342 33.4731C48.5342 33.9872 48.3303 34.4803 47.9672 34.8441H47.9673ZM12.4502 5.85938L21.9229 5.87041H21.9237C22.118 5.87053 22.3043 5.79347 22.4418 5.6562C22.5792 5.51893 22.6565 5.33268 22.6566 5.13843C22.6567 4.94418 22.5797 4.75784 22.4424 4.6204C22.3051 4.48296 22.1189 4.40568 21.9246 4.40557L12.452 4.39453H12.4511C12.3549 4.39447 12.2596 4.41336 12.1708 4.45012C12.0819 4.48687 12.0011 4.54077 11.933 4.60874C11.865 4.67671 11.811 4.75742 11.7741 4.84626C11.7373 4.9351 11.7183 5.03033 11.7182 5.12651C11.7182 5.2227 11.737 5.31795 11.7738 5.40683C11.8106 5.49572 11.8645 5.57649 11.9324 5.64454C12.0004 5.7126 12.0811 5.76659 12.1699 5.80345C12.2588 5.84032 12.354 5.85932 12.4502 5.85938ZM24.0745 37.4609L18.7034 37.4524H18.7011C18.2996 37.4524 17.9146 37.6119 17.6307 37.8958C17.3469 38.1797 17.1874 38.5647 17.1874 38.9661V40.3333C17.188 40.7342 17.3473 41.1185 17.6306 41.4021C17.9138 41.6858 18.2979 41.8458 18.6987 41.847L24.0698 41.8555H24.0722C24.2709 41.8555 24.4678 41.8163 24.6514 41.7403C24.8351 41.6642 25.002 41.5527 25.1425 41.4122C25.2831 41.2716 25.3946 41.1047 25.4706 40.9211C25.5467 40.7374 25.5859 40.5406 25.5858 40.3418V38.9746C25.5852 38.5737 25.4259 38.1894 25.1427 37.9058C24.8594 37.6221 24.4754 37.4622 24.0745 37.4609ZM24.121 40.3418C24.1211 40.3482 24.1199 40.3546 24.1175 40.3605C24.115 40.3665 24.1114 40.3718 24.1067 40.3763C24.1025 40.3812 24.0972 40.3851 24.0911 40.3876C24.0851 40.3901 24.0786 40.3912 24.0721 40.3906L18.701 40.3821C18.688 40.3821 18.6756 40.3769 18.6665 40.3678C18.6574 40.3586 18.6522 40.3462 18.6522 40.3333V38.9661C18.6522 38.9597 18.6535 38.9533 18.656 38.9474C18.6584 38.9415 18.662 38.9361 18.6666 38.9316C18.6711 38.927 18.6765 38.9234 18.6825 38.921C18.6884 38.9185 18.6948 38.9173 18.7012 38.9173L24.0723 38.9258C24.0852 38.9258 24.0976 38.931 24.1067 38.9401C24.1159 38.9493 24.121 38.9617 24.121 38.9746V40.3418ZM12.7464 37.4609L7.37529 37.4524H7.37305C6.9716 37.4524 6.58659 37.6119 6.30272 37.8958C6.01885 38.1797 5.85938 38.5647 5.85938 38.9661V40.3333C5.85997 40.7342 6.01931 41.1185 6.30255 41.4021C6.58578 41.6858 6.96984 41.8458 7.3707 41.847L12.7418 41.8555H12.7441C12.9429 41.8555 13.1398 41.8163 13.3234 41.7403C13.5071 41.6642 13.6739 41.5527 13.8145 41.4122C13.9551 41.2716 14.0666 41.1047 14.1426 40.9211C14.2187 40.7374 14.2578 40.5406 14.2578 40.3418V38.9746C14.2572 38.5737 14.0979 38.1894 13.8146 37.9058C13.5314 37.6221 13.1473 37.4622 12.7465 37.4609H12.7464ZM12.7929 40.3418C12.793 40.3482 12.7918 40.3546 12.7894 40.3605C12.7869 40.3665 12.7832 40.3718 12.7786 40.3763C12.7744 40.3812 12.769 40.3851 12.763 40.3876C12.757 40.3901 12.7504 40.3911 12.7439 40.3906L7.37285 40.3821C7.35992 40.3821 7.34752 40.3769 7.33839 40.3678C7.32925 40.3586 7.32412 40.3462 7.32412 40.3333V38.9661C7.32399 38.9597 7.3252 38.9533 7.32767 38.9473C7.33014 38.9414 7.33382 38.936 7.33848 38.9315C7.34793 38.9228 7.36019 38.9178 7.37305 38.9173L12.7441 38.9258C12.7571 38.9258 12.7695 38.931 12.7786 38.9401C12.7877 38.9493 12.7929 38.9617 12.7929 38.9746V40.3418ZM29.5541 8.36563C27.6688 8.36676 25.8422 9.02155 24.3855 10.2184C22.9288 11.4153 21.9322 13.0802 21.5654 14.9295C21.1986 16.7788 21.4844 18.6981 22.374 20.3603C23.2636 22.0226 24.7021 23.3249 26.4442 24.0455C28.1864 24.7661 30.1246 24.8604 31.9284 24.3122C33.7323 23.764 35.2903 22.6074 36.337 21.0393C37.3837 19.4712 37.8544 17.5888 37.6687 15.7126C37.4831 13.8364 36.6527 12.0827 35.319 10.7501C34.5635 9.9912 33.665 9.3897 32.6754 8.9804C31.6859 8.5711 30.625 8.36215 29.5541 8.36563ZM30.2559 23.1618C28.8165 23.314 27.3666 22.9961 26.123 22.2556V17.5918C26.1233 17.3976 26.2005 17.2114 26.3378 17.0741C26.4751 16.9368 26.6613 16.8596 26.8555 16.8594H29.5234C29.7176 16.8596 29.9038 16.9368 30.0411 17.0741C30.1784 17.2114 30.2557 17.3976 30.2559 17.5918V23.1618ZM34.2832 21.244C33.5628 21.9657 32.686 22.5119 31.7207 22.8404V17.5918C31.72 17.0093 31.4883 16.4508 31.0764 16.0388C30.6645 15.6269 30.106 15.3952 29.5234 15.3945H26.8555C26.2729 15.3952 25.7144 15.6269 25.3025 16.0388C24.8906 16.4508 24.6589 17.0093 24.6582 17.5918V21.0688C23.7837 20.1252 23.1988 18.9501 22.9734 17.6834C22.748 16.4168 22.8914 15.1121 23.3867 13.9247L30.7119 13.9352H30.7129C30.9071 13.9353 31.0935 13.8582 31.2309 13.721C31.3684 13.5837 31.4457 13.3975 31.4458 13.2032C31.4459 13.009 31.3689 12.8226 31.2316 12.6852C31.0944 12.5477 30.9081 12.4704 30.7139 12.4703L24.2358 12.461C24.4171 12.2232 24.6139 11.9976 24.8251 11.7858C26.0794 10.532 27.7804 9.82773 29.5539 9.82791C31.3274 9.82809 33.0283 10.5327 34.2823 11.7868C35.5364 13.0409 36.241 14.7417 36.2411 16.5153C36.2413 18.2888 35.537 19.9898 34.2831 21.244H34.2832ZM24.8545 43.3202L18.234 43.3118H18.233C18.0388 43.3117 17.8524 43.3887 17.715 43.526C17.5775 43.6633 17.5002 43.8495 17.5001 44.0437C17.5 44.238 17.577 44.4243 17.7143 44.5618C17.8515 44.6992 18.0378 44.7765 18.232 44.7767L24.8525 44.7852H24.8535C25.0478 44.7853 25.2341 44.7082 25.3716 44.571C25.509 44.4337 25.5863 44.2475 25.5864 44.0532C25.5866 43.859 25.5095 43.6726 25.3722 43.5352C25.235 43.3977 25.0487 43.3204 24.8545 43.3203V43.3202Z" fill="#070710"/>
</g>
<defs>
<clipPath id="clip0_2397_1885">
<rect width="50" height="50" fill="white"/>
</clipPath>
</defs>
</svg>
