<svg width="53" height="32" viewBox="0 0 53 32" fill="none" xmlns="http://www.w3.org/2000/svg">
<g clip-path="url(#clip0_2397_552)">
<path d="M26.4995 0.587738C23.1806 0.587738 20.1597 1.37735 17.9818 2.64848L19.6802 3.63972C21.4254 2.62114 23.832 1.99497 26.4995 1.99497C29.1671 1.99497 31.5642 2.62114 33.3094 3.63972L35.0078 2.64848C32.8299 1.37735 29.8184 0.587739 26.4995 0.587738ZM26.4995 3.40083C24.5836 3.401 22.7402 3.84428 21.3856 4.63508L23.0934 5.62632C23.997 5.0988 25.2214 4.8068 26.4995 4.80669C27.7776 4.8068 28.9997 5.0988 29.9033 5.62632L31.6017 4.63508C30.247 3.84428 28.4155 3.401 26.4995 3.40083ZM26.4995 6.21255C25.1835 6.21255 24.0884 6.85168 24.0884 7.61978C24.0884 8.38789 25.1835 9.02564 26.4995 9.02564C27.8156 9.02565 28.9083 8.38789 28.9083 7.61978C28.9083 6.85167 27.8156 6.21255 26.4995 6.21255ZM3.61394 6.91273C1.63309 6.91273 -0.00390625 7.86953 -0.00390625 9.02564C-0.00390625 10.1818 1.63309 11.1317 3.61394 11.1317H4.81361V14.645C4.81301 14.7377 4.84387 14.8297 4.90442 14.9154C4.96496 15.0012 5.05399 15.0791 5.16639 15.1447C5.27878 15.2103 5.41233 15.2623 5.5593 15.2976C5.70626 15.333 5.86375 15.351 6.0227 15.3506H10.5838C11.2485 15.7772 12.1967 16.0508 13.2513 16.0508H14.451V21.6756H10.8426C10.5232 21.6749 10.2163 21.7483 9.9896 21.8796C9.76287 22.0109 9.63476 22.1894 9.63349 22.3758V27.3004H8.43381C6.45297 27.3004 4.81361 28.2518 4.81361 29.4079C4.81361 30.564 6.45297 31.5139 8.43381 31.5139H13.2513C15.2322 31.5139 16.8621 30.564 16.8621 29.4079C16.8621 28.2518 15.2322 27.3004 13.2513 27.3004H12.0422V23.0829H14.6792C15.1825 23.8956 16.5066 24.4887 18.0618 24.4887H34.9278C36.483 24.4887 37.8072 23.8956 38.3104 23.0829H40.945V27.3004H39.7453C37.7645 27.3004 36.1275 28.2518 36.1275 29.4079C36.1275 30.564 37.7645 31.5139 39.7453 31.5139H44.5652C46.5461 31.5139 48.1737 30.564 48.1737 29.4079C48.1737 28.2518 46.5461 27.3004 44.5652 27.3004H43.3561V22.3758C43.3549 22.1901 43.2277 22.0122 43.0025 21.8811C42.7773 21.7499 42.4723 21.676 42.1541 21.6756H38.5363V16.0508H39.7453C40.8 16.0508 41.7458 15.7772 42.4082 15.3506H46.974C47.2934 15.3499 47.5992 15.2751 47.8242 15.1428C48.0492 15.0105 48.1749 14.8314 48.1737 14.645V11.1317H49.3827C51.3636 11.1317 52.9935 10.1818 52.9935 9.02564C52.9935 7.86953 51.3636 6.91273 49.3827 6.91273H44.5652C42.5844 6.91273 40.945 7.86953 40.945 9.02564C40.945 10.1818 42.5844 11.1317 44.5652 11.1317H45.7649V13.9448H43.3561C43.3561 12.7887 41.7262 11.8319 39.7453 11.8319H13.2513C11.2705 11.8319 9.63349 12.7887 9.63349 13.9448H7.22473V11.1317H8.43381C10.4147 11.1317 12.0422 10.1818 12.0422 9.02564C12.0422 7.86953 10.4147 6.91273 8.43381 6.91273H3.61394ZM3.61394 8.31997H8.43381C9.12187 8.31997 9.63349 8.62406 9.63349 9.02564C9.63349 9.42722 9.12187 9.72583 8.43381 9.72583H3.61394C2.92588 9.72583 2.40485 9.42723 2.40485 9.02564C2.40485 8.62406 2.92588 8.31997 3.61394 8.31997ZM44.5652 8.31997H49.3827C50.0708 8.31997 50.5824 8.62406 50.5824 9.02564C50.5824 9.42722 50.0708 9.72583 49.3827 9.72583H44.5652C43.8772 9.72583 43.3561 9.42722 43.3561 9.02564C43.3561 8.62406 43.8772 8.31997 44.5652 8.31997ZM13.2513 13.2391H39.7453C40.4334 13.2391 40.945 13.5432 40.945 13.9448C40.945 14.3464 40.4334 14.645 39.7453 14.645H13.2513C12.5633 14.645 12.0422 14.3464 12.0422 13.9448C12.0422 13.5432 12.5633 13.2391 13.2513 13.2391ZM16.8621 16.0508H36.1275V22.3758C36.1275 22.7774 35.6159 23.0829 34.9278 23.0829H18.0618C17.3737 23.0829 16.8621 22.7774 16.8621 22.3758V16.0508ZM26.4995 17.4567C24.5183 17.4567 22.8793 18.4133 22.8793 19.5696C22.8793 20.7259 24.5183 21.6756 26.4995 21.6756C28.4807 21.6756 30.108 20.7259 30.108 19.5696C30.108 18.4133 28.4807 17.4567 26.4995 17.4567ZM26.4995 18.8639C27.1789 18.8639 27.6992 19.173 27.6992 19.5696C27.6992 19.9661 27.1789 20.2698 26.4995 20.2698C25.8201 20.2698 25.2904 19.9661 25.2904 19.5696C25.2904 19.173 25.8201 18.8639 26.4995 18.8639ZM8.43381 28.7077H13.2513C13.9394 28.7077 14.451 29.0063 14.451 29.4079C14.451 29.8095 13.9394 30.1135 13.2513 30.1135H8.43381C7.74575 30.1135 7.22473 29.8095 7.22473 29.4079C7.22473 29.0063 7.74575 28.7077 8.43381 28.7077ZM39.7453 28.7077H44.5652C45.2533 28.7077 45.7649 29.0063 45.7649 29.4079C45.7649 29.8095 45.2533 30.1135 44.5652 30.1135H39.7453C39.0573 30.1135 38.5363 29.8095 38.5363 29.4079C38.5363 29.0063 39.0573 28.7077 39.7453 28.7077Z" fill="#FCB131"/>
</g>
<defs>
<clipPath id="clip0_2397_552">
<rect width="53" height="30.9275" fill="white" transform="translate(0 0.590149)"/>
</clipPath>
</defs>
</svg>
