<svg width="48" height="51" viewBox="0 0 48 51" fill="none" xmlns="http://www.w3.org/2000/svg">
<g clip-path="url(#clip0_2397_571)">
<path d="M14.5765 35.1203C14.3259 35.1195 14.0844 35.0281 13.8983 34.8637C13.7122 34.6993 13.5947 34.4734 13.5682 34.2294C13.5417 33.9854 13.6082 33.7403 13.7548 33.5413C13.9015 33.3423 14.118 33.2033 14.3629 33.151L14.7698 33.0643C15.9248 32.8139 16.9584 32.1864 17.701 31.2848C18.4436 30.3831 18.851 29.2611 18.8563 28.1028C18.8563 27.8386 18.9635 27.5852 19.1542 27.3984C19.345 27.2116 19.6038 27.1067 19.8736 27.1067C20.1434 27.1067 20.4021 27.2116 20.5929 27.3984C20.7837 27.5852 20.8909 27.8386 20.8909 28.1028C20.89 29.7183 20.3243 31.2848 19.2878 32.5418C18.2514 33.7988 16.8067 34.6704 15.194 35.0117L14.7871 35.0983C14.7179 35.1126 14.6473 35.12 14.5765 35.1203ZM33.4199 35.1203C33.3474 35.1203 33.2751 35.1129 33.2042 35.0983L32.7973 35.0117C31.1846 34.6704 29.7399 33.7988 28.7035 32.5418C27.667 31.2848 27.1013 29.7183 27.1004 28.1028C27.1004 27.8386 27.2076 27.5852 27.3984 27.3984C27.5892 27.2116 27.8479 27.1067 28.1177 27.1067C28.3875 27.1067 28.6463 27.2116 28.8371 27.3984C29.0278 27.5852 29.135 27.8386 29.135 28.1028C29.1396 29.2629 29.5475 30.387 30.2916 31.2899C31.0356 32.1928 32.0715 32.8207 33.2286 33.0703L33.6355 33.156C33.8805 33.2083 34.0971 33.3474 34.2437 33.5465C34.3904 33.7456 34.4568 33.9908 34.4302 34.2349C34.4036 34.479 34.2858 34.7049 34.0996 34.8692C33.9133 35.0335 33.6716 35.1247 33.4209 35.1252L33.4199 35.1203Z" fill="#FCB131"/>
<path d="M46.9827 51H1.01729C0.747491 51 0.488738 50.895 0.297959 50.7082C0.107179 50.5214 0 50.2681 0 50.0039L0 43.4596C0.000699087 41.4036 0.720082 39.4098 2.03854 37.8096C3.35699 36.2095 5.19509 35.0995 7.2472 34.6641L7.95117 34.5146C8.08493 34.477 8.22514 34.4667 8.36313 34.4843C8.50113 34.5019 8.63398 34.547 8.75345 34.6168C8.87293 34.6867 8.9765 34.7798 9.05776 34.8904C9.13902 35.001 9.19623 35.1268 9.22587 35.2599C9.2555 35.3931 9.25692 35.5307 9.23005 35.6644C9.20317 35.7981 9.14857 35.925 9.06961 36.0372C8.99066 36.1494 8.88903 36.2446 8.77102 36.3168C8.65301 36.389 8.52112 36.4367 8.38352 36.457L7.67854 36.6064C6.08326 36.9522 4.65553 37.819 3.62988 39.0644C2.60424 40.3098 2.04167 41.8597 2.03459 43.4596V49.0078H45.9654V43.4596C45.9582 41.86 45.3956 40.3103 44.3699 39.0653C43.3443 37.8202 41.9166 36.9538 40.3215 36.6084L39.6165 36.457C39.484 36.4312 39.358 36.3798 39.246 36.3058C39.134 36.2318 39.0382 36.1367 38.9641 36.0261C38.8901 35.9154 38.8393 35.7914 38.8147 35.6613C38.7901 35.5312 38.7923 35.3977 38.821 35.2684C38.8497 35.1391 38.9044 35.0167 38.982 34.9084C39.0595 34.8001 39.1583 34.7079 39.2726 34.6374C39.3869 34.5668 39.5144 34.5193 39.6477 34.4976C39.781 34.4758 39.9173 34.4802 40.0488 34.5107L40.7528 34.6601C42.8054 35.0956 44.6439 36.2061 45.9624 37.8068C47.2809 39.4076 48 41.4021 48 43.4586V50.0039C48 50.2681 47.8928 50.5214 47.702 50.7082C47.5113 50.895 47.2525 51 46.9827 51ZM28.5961 17.9944H19.4028C17.5084 17.9923 15.6922 17.2545 14.3526 15.9428C13.013 14.6312 12.2595 12.8528 12.2574 10.9979C12.2574 10.8671 12.2837 10.7375 12.3348 10.6167C12.3859 10.4958 12.4609 10.386 12.5553 10.2935C12.6498 10.201 12.7619 10.1277 12.8854 10.0776C13.0088 10.0275 13.1411 10.0018 13.2747 10.0018H22.3805C22.6503 10.0018 22.909 10.1067 23.0998 10.2935C23.2906 10.4803 23.3978 10.7337 23.3978 10.9979C23.3978 11.262 23.2906 11.5154 23.0998 11.7022C22.909 11.889 22.6503 11.994 22.3805 11.994H14.3947C14.6308 13.1246 15.2581 14.1408 16.1707 14.8711C17.0833 15.6013 18.2253 16.0009 19.4039 16.0022H28.5961C29.7754 16.0026 30.9186 15.6038 31.8319 14.8733C32.7452 14.1428 33.3724 13.1255 33.6073 11.994H25.6195C25.3497 11.994 25.091 11.889 24.9002 11.7022C24.7094 11.5154 24.6022 11.262 24.6022 10.9979C24.6022 10.7337 24.7094 10.4803 24.9002 10.2935C25.091 10.1067 25.3497 10.0018 25.6195 10.0018H34.7253C34.9951 10.0018 35.2539 10.1067 35.4447 10.2935C35.6354 10.4803 35.7426 10.7337 35.7426 10.9979C35.7428 11.9168 35.558 12.8267 35.1989 13.6757C34.8398 14.5247 34.3134 15.2961 33.6497 15.9458C32.986 16.5956 32.1982 17.1109 31.3311 17.4624C30.464 17.8139 29.5346 17.9947 28.5961 17.9944Z" fill="#FCB131"/>
<path d="M23.9986 29.9964C22.5906 29.9965 21.1964 29.7251 19.8956 29.1975C18.5948 28.67 17.4128 27.8968 16.4172 26.9219C15.4216 25.9471 14.6319 24.7898 14.0932 23.516C13.5544 22.2423 13.2772 20.8772 13.2773 19.4985V14.3188C13.2773 14.0547 13.3845 13.8013 13.5753 13.6145C13.7661 13.4277 14.0248 13.3228 14.2946 13.3228C14.5644 13.3228 14.8232 13.4277 15.014 13.6145C15.2048 13.8013 15.3119 14.0547 15.3119 14.3188V19.4985C15.3119 21.7544 16.2271 23.9178 17.8562 25.5129C19.4853 27.1081 21.6948 28.0042 23.9986 28.0042C26.3025 28.0042 28.5119 27.1081 30.141 25.5129C31.7701 23.9178 32.6853 21.7544 32.6853 19.4985V14.3188C32.6853 14.0547 32.7925 13.8013 32.9832 13.6145C33.174 13.4277 33.4328 13.3228 33.7026 13.3228C33.9724 13.3228 34.2311 13.4277 34.4219 13.6145C34.6127 13.8013 34.7199 14.0547 34.7199 14.3188V19.4985C34.7166 22.2818 33.586 24.9501 31.5761 26.9181C29.5662 28.8862 26.8411 29.9932 23.9986 29.9964Z" fill="#FCB131"/>
<path d="M23.9994 26.003C22.9262 26.003 21.8529 25.5946 20.8102 24.7778C20.6014 24.6122 20.468 24.3725 20.4391 24.1109C20.4102 23.8493 20.4881 23.5872 20.6559 23.3817C20.8237 23.1762 21.0678 23.0441 21.3347 23.0141C21.6017 22.9842 21.8699 23.0589 22.0808 23.2219C23.4033 24.2609 24.5905 24.2609 25.917 23.2219C26.0214 23.1402 26.1411 23.0793 26.2695 23.0429C26.3978 23.0065 26.5322 22.9951 26.665 23.0096C26.7979 23.024 26.9265 23.0639 27.0435 23.127C27.1606 23.1901 27.2638 23.2752 27.3473 23.3773C27.4308 23.4795 27.493 23.5967 27.5302 23.7224C27.5674 23.8481 27.5789 23.9797 27.5642 24.1098C27.5495 24.2398 27.5087 24.3657 27.4443 24.4804C27.3798 24.595 27.293 24.6961 27.1886 24.7778C26.1439 25.5996 25.0727 26.003 23.9994 26.003ZM34.7248 11.994H25.619C25.3491 11.994 25.0904 11.889 24.8996 11.7022C24.7088 11.5154 24.6017 11.2621 24.6017 10.9979C24.6017 10.7337 24.7088 10.4803 24.8996 10.2935C25.0904 10.1067 25.3491 10.0018 25.619 10.0018H33.7075V8.28451C33.7056 6.61625 33.0279 5.01684 31.8232 3.8372C30.6184 2.65757 28.985 1.99403 27.2812 1.99219H20.7176C19.0139 1.99403 17.3804 2.65757 16.1757 3.8372C14.9709 5.01684 14.2933 6.61625 14.2914 8.28451V10.0018H22.3799C22.6497 10.0018 22.9084 10.1067 23.0992 10.2935C23.29 10.4803 23.3972 10.7337 23.3972 10.9979C23.3972 11.2621 23.29 11.5154 23.0992 11.7022C22.9084 11.889 22.6497 11.994 22.3799 11.994H13.2751C13.0053 11.994 12.7466 11.889 12.5558 11.7022C12.365 11.5154 12.2578 11.2621 12.2578 10.9979V8.28451C12.2602 6.08822 13.1523 3.98255 14.7383 2.42945C16.3242 0.876345 18.4746 0.00263659 20.7176 0L27.2812 0C29.5244 0.00237299 31.6751 0.875965 33.2612 2.4291C34.8474 3.98223 35.7396 6.08805 35.742 8.28451V10.9979C35.742 11.2621 35.6349 11.5154 35.4441 11.7022C35.2533 11.889 34.9946 11.994 34.7248 11.994Z" fill="#FCB131"/>
<path d="M24.0018 13.9941C23.859 13.9941 23.7178 13.9646 23.5874 13.9077C23.457 13.8507 23.3403 13.7675 23.2449 13.6634C22.6447 13.008 20.6864 10.7548 20.6864 9.24773C20.6864 8.38677 21.0357 7.56107 21.6575 6.95227C22.2792 6.34348 23.1225 6.00146 24.0018 6.00146C24.8811 6.00146 25.7243 6.34348 26.3461 6.95227C26.9678 7.56107 27.3171 8.38677 27.3171 9.24773C27.3171 10.7548 25.3589 13.008 24.7587 13.6634C24.6633 13.7675 24.5466 13.8507 24.4162 13.9077C24.2858 13.9646 24.1446 13.9941 24.0018 13.9941ZM24.0018 7.99365C23.6622 7.99392 23.3366 8.12613 23.0964 8.36126C22.8563 8.59638 22.7213 8.91521 22.721 9.24773C22.721 9.5874 23.2724 10.5068 24.0008 11.4391C24.7302 10.5078 25.2826 9.5884 25.2826 9.24773C25.2823 8.91521 25.1473 8.59638 24.9071 8.36126C24.667 8.12613 24.3414 7.99392 24.0018 7.99365ZM39.8339 51H8.16964C7.89983 51 7.64108 50.8951 7.4503 50.7083C7.25952 50.5214 7.15234 50.2681 7.15234 50.0039C7.15234 49.7397 7.25952 49.4864 7.4503 49.2996C7.64108 49.1128 7.89983 49.0078 8.16964 49.0078H38.8166V32.9976H34.6681C34.5035 34.5108 33.9602 35.9608 33.0864 37.2193C32.2127 38.4778 31.0354 39.5058 29.659 40.2123L24.4758 42.8838C24.3297 42.9592 24.167 42.9986 24.0018 42.9986C23.8366 42.9986 23.6739 42.9592 23.5277 42.8838L18.3395 40.2123C16.9631 39.5058 15.7858 38.4778 14.912 37.2193C14.0383 35.9608 13.495 34.5108 13.3304 32.9976H9.18693V40.0549C9.18693 40.3191 9.07975 40.5725 8.88897 40.7593C8.69819 40.9461 8.43944 41.051 8.16964 41.051C7.89983 41.051 7.64108 40.9461 7.4503 40.7593C7.25952 40.5725 7.15234 40.3191 7.15234 40.0549V32.0015C7.15234 31.7373 7.25952 31.484 7.4503 31.2972C7.64108 31.1104 7.89983 31.0054 8.16964 31.0054H14.2978C14.5676 31.0054 14.8264 31.1104 15.0172 31.2972C15.2079 31.484 15.3151 31.7373 15.3151 32.0015C15.3136 33.3293 15.6833 34.6322 16.3843 35.7688C17.0854 36.9054 18.0908 37.8324 19.2917 38.4492L24.0018 40.8767L28.7119 38.4492C29.9127 37.8324 30.9182 36.9054 31.6192 35.7688C32.3202 34.6322 32.69 33.3293 32.6885 32.0015C32.6885 31.7373 32.7956 31.484 32.9864 31.2972C33.1772 31.1104 33.4359 31.0054 33.7058 31.0054H39.8339C40.1037 31.0054 40.3625 31.1104 40.5533 31.2972C40.744 31.484 40.8512 31.7373 40.8512 32.0015V50.0039C40.8512 50.2681 40.744 50.5214 40.5533 50.7083C40.3625 50.8951 40.1037 51 39.8339 51Z" fill="#FCB131"/>
<path d="M35.7467 51H27.5748C27.305 51 27.0462 50.8951 26.8554 50.7083C26.6647 50.5215 26.5575 50.2681 26.5575 50.0039V46.0036C26.5575 45.7394 26.6647 45.4861 26.8554 45.2993C27.0462 45.1125 27.305 45.0075 27.5748 45.0075H35.7467C36.0165 45.0075 36.2752 45.1125 36.466 45.2993C36.6568 45.4861 36.764 45.7394 36.764 46.0036V50.0039C36.764 50.2681 36.6568 50.5215 36.466 50.7083C36.2752 50.8951 36.0165 51 35.7467 51ZM28.5921 49.0078H34.7294V46.9997H28.5921V49.0078ZM46.9827 45.9996H39.8321C39.5623 45.9996 39.3036 45.8947 39.1128 45.7079C38.922 45.5211 38.8148 45.2677 38.8148 45.0035C38.8148 44.7394 38.922 44.486 39.1128 44.2992C39.3036 44.1124 39.5623 44.0074 39.8321 44.0074H46.9827C47.2525 44.0074 47.5113 44.1124 47.702 44.2992C47.8928 44.486 48 44.7394 48 45.0035C48 45.2677 47.8928 45.5211 47.702 45.7079C47.5113 45.8947 47.2525 45.9996 46.9827 45.9996ZM7.14649 45.9996H1.01729C0.747491 45.9996 0.488738 45.8947 0.297959 45.7079C0.107179 45.5211 0 45.2677 0 45.0035C0 44.7394 0.107179 44.486 0.297959 44.2992C0.488738 44.1124 0.747491 44.0074 1.01729 44.0074H7.14649C7.41629 44.0074 7.67505 44.1124 7.86583 44.2992C8.05661 44.486 8.16378 44.7394 8.16378 45.0035C8.16378 45.2677 8.05661 45.5211 7.86583 45.7079C7.67505 45.8947 7.41629 45.9996 7.14649 45.9996Z" fill="#FCB131"/>
<path d="M14.2957 51H7.1462C6.8764 51 6.61764 50.8951 6.42686 50.7083C6.23609 50.5215 6.12891 50.2681 6.12891 50.0039V41.3837C6.12944 40.7535 6.38531 40.1491 6.84037 39.7034C7.29542 39.2576 7.91249 39.0068 8.55617 39.006H12.8858C13.5294 39.0071 14.1463 39.258 14.6013 39.7037C15.0563 40.1494 15.3122 40.7535 15.313 41.3837V50.0039C15.313 50.2681 15.2059 50.5215 15.0151 50.7083C14.8243 50.8951 14.5655 51 14.2957 51ZM8.16349 49.0078H13.2784V41.3837C13.2784 41.2817 13.2371 41.1838 13.1635 41.1115C13.0899 41.0392 12.99 40.9985 12.8858 40.9982H8.55617C8.45193 40.9985 8.35206 41.0392 8.27844 41.1115C8.20483 41.1838 8.16349 41.2817 8.16349 41.3837V49.0078Z" fill="#FCB131"/>
<path d="M14.2962 45.9996H11.2321C10.9623 45.9996 10.7036 45.8947 10.5128 45.7079C10.322 45.5211 10.2148 45.2677 10.2148 45.0035C10.2148 44.7394 10.322 44.486 10.5128 44.2992C10.7036 44.1124 10.9623 44.0074 11.2321 44.0074H14.2962C14.566 44.0074 14.8248 44.1124 15.0156 44.2992C15.2063 44.486 15.3135 44.7394 15.3135 45.0035C15.3135 45.2677 15.2063 45.5211 15.0156 45.7079C14.8248 45.8947 14.566 45.9996 14.2962 45.9996Z" fill="#FCB131"/>
</g>
<defs>
<clipPath id="clip0_2397_571">
<rect width="48" height="51" fill="white"/>
</clipPath>
</defs>
</svg>
