<svg width="32" height="32" viewBox="0 0 32 32" fill="none" xmlns="http://www.w3.org/2000/svg">
<path d="M21.1819 2.91998H10.8219C10.0527 2.91998 9.31512 3.22552 8.77127 3.76937C8.22741 4.31323 7.92188 5.05086 7.92188 5.81998V26.18C7.92187 26.9491 8.22741 27.6867 8.77127 28.2306C9.31512 28.7744 10.0527 29.08 10.8219 29.08H21.1819C21.951 29.08 22.6886 28.7744 23.2325 28.2306C23.7763 27.6867 24.0819 26.9491 24.0819 26.18V5.81998C24.0819 5.05086 23.7763 4.31323 23.2325 3.76937C22.6886 3.22552 21.951 2.91998 21.1819 2.91998ZM21.9219 26.18C21.9219 26.3762 21.8439 26.5645 21.7051 26.7032C21.5664 26.842 21.3781 26.92 21.1819 26.92H10.8219C10.6256 26.92 10.4374 26.842 10.2986 26.7032C10.1598 26.5645 10.0819 26.3762 10.0819 26.18V5.81998C10.0819 5.62372 10.1598 5.4355 10.2986 5.29672C10.4374 5.15795 10.6256 5.07998 10.8219 5.07998H21.1819C21.3781 5.07998 21.5664 5.15795 21.7051 5.29672C21.8439 5.4355 21.9219 5.62372 21.9219 5.81998V26.18Z" fill="#070710" fill-opacity="0.9"/>
<path d="M17.0019 23.92H15.0019C14.7154 23.92 14.4407 24.0338 14.2382 24.2363C14.0357 24.4388 13.9219 24.7135 13.9219 25C13.9219 25.2864 14.0357 25.5611 14.2382 25.7637C14.4407 25.9662 14.7154 26.08 15.0019 26.08H17.0019C17.2883 26.08 17.563 25.9662 17.7656 25.7637C17.9681 25.5611 18.0819 25.2864 18.0819 25C18.0819 24.7135 17.9681 24.4388 17.7656 24.2363C17.563 24.0338 17.2883 23.92 17.0019 23.92Z" fill="#070710" fill-opacity="0.9"/>
</svg>
