<svg width="23" height="23" viewBox="0 0 23 23" fill="none" xmlns="http://www.w3.org/2000/svg">
<g clip-path="url(#clip0_2397_422)">
<path d="M18.7546 21.4992C17.9882 22.0451 13.0707 18.5847 12.1288 18.5771C11.187 18.5696 6.2141 21.9503 5.45664 21.3922C4.69918 20.834 6.47993 15.1011 6.19614 14.2057C5.91236 13.3102 1.15109 9.63875 1.44934 8.74792C1.74766 7.85709 7.76577 7.77435 8.53217 7.22846C9.29857 6.68263 11.3289 1.03279 12.2708 1.04033C13.2126 1.04794 15.1512 6.72971 15.9086 7.28786C16.6661 7.84595 22.6822 8.02559 22.966 8.92108C23.2498 9.81656 18.4298 13.4109 18.1315 14.3017C17.8332 15.1925 19.521 20.9533 18.7546 21.4992Z" fill="#F8B84E"/>
</g>
<defs>
<clipPath id="clip0_2397_422">
<rect width="22.4" height="22.4" fill="white" transform="scale(1.02679)"/>
</clipPath>
</defs>
</svg>
