<svg width="53" height="31" viewBox="0 0 53 31" fill="none" xmlns="http://www.w3.org/2000/svg">
<g clip-path="url(#clip0_2397_552)">
<path d="M26.4995 -0.00241089C23.1806 -0.00241089 20.1597 0.787206 17.9818 2.05833L19.6802 3.04957C21.4254 2.03099 23.832 1.40482 26.4995 1.40482C29.1671 1.40482 31.5642 2.03099 33.3094 3.04957L35.0078 2.05833C32.8299 0.787206 29.8184 -0.00241033 26.4995 -0.00241089ZM26.4995 2.81068C24.5836 2.81085 22.7402 3.25413 21.3856 4.04493L23.0934 5.03617C23.997 4.50865 25.2214 4.21665 26.4995 4.21654C27.7776 4.21665 28.9997 4.50865 29.9033 5.03617L31.6017 4.04493C30.247 3.25413 28.4155 2.81085 26.4995 2.81068ZM26.4995 5.6224C25.1835 5.6224 24.0884 6.26153 24.0884 7.02963C24.0884 7.79774 25.1835 8.43549 26.4995 8.43549C27.8156 8.4355 28.9083 7.79775 28.9083 7.02963C28.9083 6.26152 27.8156 5.6224 26.4995 5.6224ZM3.61394 6.32259C1.63309 6.32259 -0.00390625 7.27938 -0.00390625 8.43549C-0.00390625 9.59161 1.63309 10.5415 3.61394 10.5415H4.81361V14.0548C4.81301 14.1476 4.84387 14.2395 4.90442 14.3253C4.96496 14.4111 5.05399 14.489 5.16639 14.5546C5.27878 14.6202 5.41233 14.6722 5.5593 14.7075C5.70626 14.7428 5.86375 14.7608 6.0227 14.7605H10.5838C11.2485 15.187 12.1967 15.4607 13.2513 15.4607H14.451V21.0855H10.8426C10.5232 21.0848 10.2163 21.1581 9.9896 21.2895C9.76287 21.4208 9.63476 21.5993 9.63349 21.7857V26.7103H8.43381C6.45297 26.7103 4.81361 27.6616 4.81361 28.8177C4.81361 29.9738 6.45297 30.9238 8.43381 30.9238H13.2513C15.2322 30.9238 16.8621 29.9738 16.8621 28.8177C16.8621 27.6616 15.2322 26.7103 13.2513 26.7103H12.0422V22.4927H14.6792C15.1825 23.3054 16.5066 23.8986 18.0618 23.8986H34.9278C36.483 23.8986 37.8072 23.3054 38.3104 22.4927H40.945V26.7103H39.7453C37.7645 26.7103 36.1275 27.6616 36.1275 28.8177C36.1275 29.9738 37.7645 30.9238 39.7453 30.9238H44.5652C46.5461 30.9238 48.1737 29.9738 48.1737 28.8177C48.1737 27.6616 46.5461 26.7103 44.5652 26.7103H43.3561V21.7857C43.3549 21.6 43.2277 21.4221 43.0025 21.2909C42.7773 21.1597 42.4723 21.0859 42.1541 21.0855H38.5363V15.4607H39.7453C40.8 15.4607 41.7458 15.187 42.4082 14.7605H46.974C47.2934 14.7597 47.5992 14.685 47.8242 14.5526C48.0492 14.4203 48.1749 14.2412 48.1737 14.0548V10.5415H49.3827C51.3636 10.5415 52.9935 9.59161 52.9935 8.43549C52.9935 7.27938 51.3636 6.32259 49.3827 6.32259H44.5652C42.5844 6.32259 40.945 7.27938 40.945 8.43549C40.945 9.59161 42.5844 10.5415 44.5652 10.5415H45.7649V13.3546H43.3561C43.3561 12.1985 41.7262 11.2417 39.7453 11.2417H13.2513C11.2705 11.2417 9.63349 12.1985 9.63349 13.3546H7.22473V10.5415H8.43381C10.4147 10.5415 12.0422 9.59161 12.0422 8.43549C12.0422 7.27938 10.4147 6.32259 8.43381 6.32259H3.61394ZM3.61394 7.72982H8.43381C9.12187 7.72982 9.63349 8.03391 9.63349 8.43549C9.63349 8.83708 9.12187 9.13568 8.43381 9.13568H3.61394C2.92588 9.13568 2.40485 8.83708 2.40485 8.43549C2.40485 8.03391 2.92588 7.72982 3.61394 7.72982ZM44.5652 7.72982H49.3827C50.0708 7.72982 50.5824 8.03391 50.5824 8.43549C50.5824 8.83708 50.0708 9.13568 49.3827 9.13568H44.5652C43.8772 9.13568 43.3561 8.83708 43.3561 8.43549C43.3561 8.03391 43.8772 7.72982 44.5652 7.72982ZM13.2513 12.649H39.7453C40.4334 12.649 40.945 12.953 40.945 13.3546C40.945 13.7562 40.4334 14.0548 39.7453 14.0548H13.2513C12.5633 14.0548 12.0422 13.7562 12.0422 13.3546C12.0422 12.9531 12.5633 12.649 13.2513 12.649ZM16.8621 15.4607H36.1275V21.7857C36.1275 22.1873 35.6159 22.4927 34.9278 22.4927H18.0618C17.3737 22.4927 16.8621 22.1873 16.8621 21.7857V15.4607ZM26.4995 16.8665C24.5183 16.8665 22.8793 17.8231 22.8793 18.9794C22.8793 20.1358 24.5183 21.0855 26.4995 21.0855C28.4807 21.0855 30.108 20.1358 30.108 18.9794C30.108 17.8231 28.4807 16.8665 26.4995 16.8665ZM26.4995 18.2738C27.1789 18.2738 27.6992 18.5829 27.6992 18.9794C27.6992 19.376 27.1789 19.6796 26.4995 19.6796C25.8201 19.6796 25.2904 19.376 25.2904 18.9794C25.2904 18.5829 25.8201 18.2738 26.4995 18.2738ZM8.43381 28.1175H13.2513C13.9394 28.1175 14.451 28.4161 14.451 28.8177C14.451 29.2193 13.9394 29.5234 13.2513 29.5234H8.43381C7.74575 29.5234 7.22473 29.2193 7.22473 28.8177C7.22473 28.4161 7.74575 28.1175 8.43381 28.1175ZM39.7453 28.1175H44.5652C45.2533 28.1175 45.7649 28.4161 45.7649 28.8177C45.7649 29.2193 45.2533 29.5234 44.5652 29.5234H39.7453C39.0573 29.5234 38.5363 29.2193 38.5363 28.8177C38.5363 28.4161 39.0573 28.1175 39.7453 28.1175Z" fill="black"/>
</g>
<defs>
<clipPath id="clip0_2397_552">
<rect width="53" height="30.9275" fill="white"/>
</clipPath>
</defs>
</svg>
