<svg width="56" height="56" viewBox="0 0 56 56" fill="none" xmlns="http://www.w3.org/2000/svg">
<path d="M53.3305 24.9769H50.4342L45.7827 5.73126C45.7366 5.54061 45.6278 5.37096 45.4737 5.24957C45.3196 5.12818 45.1292 5.06208 44.9331 5.06189H11.0111C10.8148 5.06189 10.6242 5.1279 10.4699 5.2493C10.3157 5.37071 10.2067 5.54046 10.1606 5.73126L5.50997 24.9813H3.54297C3.3109 24.9813 3.08834 25.0735 2.92425 25.2375C2.76016 25.4016 2.66797 25.6242 2.66797 25.8563V31.6986C2.66797 31.9307 2.76016 32.1533 2.92425 32.3174C3.08834 32.4815 3.3109 32.5736 3.54297 32.5736H6.25547V35.9468C6.25547 36.1788 6.34766 36.4014 6.51175 36.5655C6.67584 36.7296 6.8984 36.8218 7.13047 36.8218H9.17622V50.8218C9.17622 51.0538 9.26841 51.2764 9.4325 51.4405C9.59659 51.6046 9.81915 51.6968 10.0512 51.6968H15.8927C16.1248 51.6968 16.3473 51.6046 16.5114 51.4405C16.6755 51.2764 16.7677 51.0538 16.7677 50.8218V46.5815C16.7677 41.93 22.0037 38.1456 28.4393 38.1456C34.875 38.1456 40.111 41.93 40.111 46.6331V50.8156C40.111 51.0477 40.2032 51.2703 40.3673 51.4344C40.5313 51.5985 40.7539 51.6906 40.986 51.6906H46.8275C47.0595 51.6906 47.2821 51.5985 47.4462 51.4344C47.6103 51.2703 47.7025 51.0477 47.7025 50.8156V36.8156H49.7491C49.9812 36.8156 50.2037 36.7235 50.3678 36.5594C50.5319 36.3953 50.6241 36.1727 50.6241 35.9406V32.5693H53.3366C53.5687 32.5693 53.7912 32.4771 53.9553 32.313C54.1194 32.1489 54.2116 31.9263 54.2116 31.6943V25.8519C54.2116 25.7365 54.1888 25.6222 54.1444 25.5156C54.1001 25.4091 54.0351 25.3123 53.9532 25.231C53.8713 25.1497 53.7741 25.0853 53.6672 25.0417C53.5603 24.9981 53.4459 24.9761 53.3305 24.9769ZM48.6343 24.9769H46.6096L42.2206 6.81189H44.2436L48.6343 24.9769ZM26.3463 24.9769H11.1345L15.2128 8.09901L26.3463 24.9769ZM16.4588 6.81189H39.4827L27.9721 24.2629L16.4588 6.81189ZM40.7313 8.09901L44.8097 24.9769H29.5978L40.7313 8.09901ZM11.6997 6.81189H13.7236L9.33372 24.9769H7.31072L11.6997 6.81189ZM8.00284 32.5693H17.9367V35.0674H8.00284V32.5693ZM15.0151 49.938H10.9236V36.813H15.0151V49.938ZM28.4367 36.4C23.4361 36.4 19.0742 38.4895 16.7651 41.5748V36.8174H18.8117C19.0438 36.8174 19.2663 36.7252 19.4304 36.5611C19.5945 36.397 19.6867 36.1745 19.6867 35.9424V32.5693H37.1867V35.9424C37.1867 36.1745 37.2789 36.397 37.443 36.5611C37.6071 36.7252 37.8297 36.8174 38.0617 36.8174H40.1075V41.5704C37.7992 38.4851 33.4373 36.4 28.4367 36.4ZM45.9498 49.938H41.8583V36.813H45.9498V49.938ZM48.8715 35.063H38.9367V32.5693H48.8715V35.063ZM52.459 30.8149H4.41797V26.7269H52.4555L52.459 30.8149Z" fill="#FCB131"/>
</svg>
