<svg width="30" height="30" viewBox="0 0 30 30" fill="none" xmlns="http://www.w3.org/2000/svg">
<path d="M15 13.5C15.4945 13.5 15.9778 13.3534 16.3889 13.0787C16.8 12.804 17.1205 12.4135 17.3097 11.9567C17.4989 11.4999 17.5484 10.9972 17.452 10.5123C17.3555 10.0273 17.1174 9.58185 16.7678 9.23222C16.4181 8.88259 15.9727 8.64449 15.4877 8.54802C15.0028 8.45156 14.5001 8.50107 14.0433 8.69029C13.5865 8.87951 13.196 9.19994 12.9213 9.61106C12.6466 10.0222 12.5 10.5055 12.5 11C12.5 11.663 12.7634 12.2989 13.2322 12.7678C13.7011 13.2366 14.337 13.5 15 13.5ZM14.1125 22.1375C14.2287 22.2546 14.367 22.3476 14.5193 22.4111C14.6716 22.4746 14.835 22.5072 15 22.5072C15.165 22.5072 15.3284 22.4746 15.4807 22.4111C15.633 22.3476 15.7713 22.2546 15.8875 22.1375L21 17.0125C22.1874 15.8257 22.9962 14.3133 23.3241 12.6668C23.6519 11.0203 23.4841 9.3135 22.8419 7.76235C22.1996 6.2112 21.1117 4.88538 19.7159 3.95256C18.32 3.01975 16.6789 2.52185 15 2.52185C13.3211 2.52185 11.68 3.01975 10.2841 3.95256C8.88828 4.88538 7.80042 6.2112 7.15815 7.76235C6.51588 9.3135 6.34806 11.0203 6.67591 12.6668C7.00376 14.3133 7.81256 15.8257 9 17.0125L14.1125 22.1375ZM9.0375 10.425C9.12291 9.53376 9.40627 8.67285 9.86691 7.90513C10.3275 7.13741 10.9538 6.48225 11.7 5.98749C12.6803 5.34386 13.8273 5.00094 15 5.00094C16.1727 5.00094 17.3197 5.34386 18.3 5.98749C19.0412 6.48055 19.6639 7.13174 20.1234 7.89422C20.5829 8.6567 20.8677 9.51153 20.9573 10.3972C21.047 11.2829 20.9392 12.1775 20.6419 13.0166C20.3445 13.8556 19.8649 14.6184 19.2375 15.25L15 19.4875L10.7625 15.25C10.1344 14.6245 9.65366 13.8669 9.35526 13.0322C9.05685 12.1976 8.9483 11.3069 9.0375 10.425ZM23.75 25H6.25C5.91848 25 5.60054 25.1317 5.36612 25.3661C5.1317 25.6005 5 25.9185 5 26.25C5 26.5815 5.1317 26.8995 5.36612 27.1339C5.60054 27.3683 5.91848 27.5 6.25 27.5H23.75C24.0815 27.5 24.3995 27.3683 24.6339 27.1339C24.8683 26.8995 25 26.5815 25 26.25C25 25.9185 24.8683 25.6005 24.6339 25.3661C24.3995 25.1317 24.0815 25 23.75 25Z" fill="#FCB131"/>
</svg>
