<svg width="51" height="30" viewBox="0 0 51 30" fill="none" xmlns="http://www.w3.org/2000/svg">
<path fill-rule="evenodd" clip-rule="evenodd" d="M0 0V23.1451H31.7125V21.4919H2.8331V1.65322H41.08V3.40564H43.9131V0H0ZM43.9131 8.26612C43.9131 9.1792 42.6447 9.91934 41.08 9.91934C39.5153 9.91934 38.2469 9.1792 38.2469 8.26612C38.2469 7.35304 39.5153 6.6129 41.08 6.6129C42.6447 6.6129 43.9131 7.35304 43.9131 8.26612ZM46.7462 8.26612C46.7462 10.0922 44.2093 11.5726 41.08 11.5726C37.9507 11.5726 35.4138 10.0922 35.4138 8.26612C35.4138 6.44005 37.9507 4.95967 41.08 4.95967C44.2093 4.95967 46.7462 6.44005 46.7462 8.26612Z" fill="#FCB131"/>
<path fill-rule="evenodd" clip-rule="evenodd" d="M34.1313 13.085C34.9217 12.645 35.9722 12.3995 37.0647 12.3995H42.8465C44.9202 12.3995 46.8509 12.8113 48.3387 13.631C49.7703 14.4198 50.5144 15.4306 50.8191 16.3885C51.2981 17.8944 50.8017 19.5406 49.5825 20.9992V27.6918C49.5825 28.767 48.1696 29.6626 46.3332 29.7513C44.4969 29.84 42.8509 29.0921 42.5479 28.0315L41.7914 25.383L41.035 28.0315C40.7321 29.0921 39.086 29.84 37.2497 29.7513C35.4134 29.6626 34.0004 28.767 34.0004 27.6918V22.7356C34.0003 22.7317 34.0003 22.7278 34.0003 22.7238V19.9156C33.3593 20.1315 32.6273 20.2478 31.8754 20.2478H24.6481C22.3011 20.2478 20.3984 19.1376 20.3984 17.768C20.3984 16.3984 22.3011 15.2881 24.6481 15.2881H30.1736L34.1313 13.085ZM36.8334 22.7121C36.8335 22.716 36.8335 22.7199 36.8335 22.7238V27.6918C36.8335 27.9069 37.1161 28.0859 37.4834 28.1037C37.8506 28.1215 38.1798 27.9718 38.2404 27.7597L39.7176 22.588C39.8314 22.1894 40.4223 21.8972 41.1149 21.8972H42.4681C43.1605 21.8972 43.7515 22.1894 43.8654 22.588L45.3425 27.7597C45.4031 27.9718 45.7323 28.1215 46.0996 28.1037C46.4668 28.0859 46.7494 27.9069 46.7494 27.6918V20.8032C46.7494 20.671 46.8038 20.5406 46.9082 20.4231C48.002 19.1907 48.3995 17.8408 48.0336 16.6902C47.8114 15.9914 47.2918 15.3279 46.3937 14.8331C45.4769 14.3279 44.2615 14.0527 42.8465 14.0527H37.0653C36.7011 14.0527 36.3503 14.1345 36.0868 14.2812L31.7186 16.7129C31.4552 16.8595 31.105 16.9414 30.7408 16.9414H24.6481C23.8658 16.9414 23.2315 17.3114 23.2315 17.768C23.2315 18.2245 23.8658 18.5946 24.6481 18.5946H31.8754C32.2396 18.5946 32.5898 18.5128 32.8533 18.3661L34.4391 17.4833C34.8492 17.255 35.4532 17.1913 35.9744 17.3215C36.4954 17.4517 36.8334 17.7506 36.8334 18.0814V22.7121Z" fill="#FCB131"/>
</svg>
