<svg width="12" height="12" viewBox="0 0 12 12" fill="none" xmlns="http://www.w3.org/2000/svg">
<path fill-rule="evenodd" clip-rule="evenodd" d="M11.7838 10.3964C11.4134 11.522 9.96228 12.0835 8.92551 11.9899C7.50957 11.8619 5.96882 11.1108 4.79926 10.2836C3.08013 9.06764 1.46978 7.18691 0.531418 5.19098C-0.131758 3.78063 -0.280553 2.04629 0.705812 0.760739C1.0706 0.285556 1.46578 0.0319651 2.05776 0.00236615C2.88013 -0.0376324 2.99533 0.432751 3.27772 1.16552C3.48811 1.7135 3.7689 2.27268 3.9257 2.84066C4.21928 3.90063 3.19292 3.94462 3.06333 4.81099C2.98333 5.35737 3.64491 6.09015 3.94409 6.47973C4.52078 7.23848 5.2271 7.88928 6.03042 8.40206C6.4864 8.68925 7.22078 9.20683 7.74236 8.92124C8.54553 8.48126 8.47033 7.12691 9.59269 7.58529C10.1743 7.82208 10.7374 8.16367 11.2926 8.46286C12.151 8.92444 12.111 9.40283 11.7838 10.3964C12.0286 9.65402 11.539 11.1388 11.7838 10.3964Z" fill="white"/>
</svg>
