<svg width="60" height="60" viewBox="0 0 60 60" fill="none" xmlns="http://www.w3.org/2000/svg">
<g clip-path="url(#clip0_2397_617)">
<path d="M54.375 49.6875C53.6511 49.6896 52.9376 49.8601 52.291 50.1855C51.6444 50.511 51.0824 50.9824 50.6494 51.5625H49.6875V38.265C50.3125 38.0449 50.8394 37.6106 51.175 37.0392C51.5105 36.4678 51.633 35.796 51.5207 35.143C51.4084 34.4899 51.0686 33.8976 50.5615 33.4711C50.0544 33.0445 49.4127 32.8112 48.75 32.8125H32.8125V15C32.8125 14.7514 32.7137 14.5129 32.5379 14.3371C32.3621 14.1613 32.1236 14.0625 31.875 14.0625H30V5.625C30 4.87908 29.7037 4.16371 29.1762 3.63626C28.6488 3.10882 27.9334 2.8125 27.1875 2.8125C26.4416 2.8125 25.7262 3.10882 25.1988 3.63626C24.6713 4.16371 24.375 4.87908 24.375 5.625V14.0625H22.5V1.875C22.5 1.62636 22.4012 1.3879 22.2254 1.21209C22.0496 1.03627 21.8111 0.9375 21.5625 0.9375H17.8125C17.5639 0.9375 17.3254 1.03627 17.1496 1.21209C16.9738 1.3879 16.875 1.62636 16.875 1.875V4.42781L14.1966 8.89219C14.1089 9.03798 14.0626 9.20488 14.0625 9.375V14.0625H1.875C1.62636 14.0625 1.3879 14.1613 1.21209 14.3371C1.03627 14.5129 0.9375 14.7514 0.9375 15V17.8125C0.937585 18.0439 1.02323 18.267 1.17795 18.4391C1.33268 18.6111 1.54555 18.7198 1.77563 18.7444L3.75 18.9562V47.8125C3.75 48.0611 3.84877 48.2996 4.02459 48.4754C4.2004 48.6512 4.43886 48.75 4.6875 48.75H14.0625C14.3111 48.75 14.5496 48.6512 14.7254 48.4754C14.9012 48.2996 15 48.0611 15 47.8125V20.1619L27.1875 21.4688V39.375H25.3125V32.8125C25.3125 32.5639 25.2137 32.3254 25.0379 32.1496C24.8621 31.9738 24.6236 31.875 24.375 31.875H19.6875C19.4389 31.875 19.2004 31.9738 19.0246 32.1496C18.8488 32.3254 18.75 32.5639 18.75 32.8125V39.375H17.8125C17.5639 39.375 17.3254 39.4738 17.1496 39.6496C16.9738 39.8254 16.875 40.0639 16.875 40.3125C16.8765 41.5552 17.3708 42.7467 18.2496 43.6254C19.1283 44.5042 20.3198 44.9985 21.5625 45H27.1875V51.5625H21.5381C20.9478 50.7754 20.1249 50.1941 19.1858 49.9007C18.2467 49.6074 17.2391 49.6169 16.3058 49.928C15.3725 50.2392 14.5607 50.8361 13.9854 51.6342C13.4102 52.4323 13.1006 53.3912 13.1006 54.375C13.1006 55.3588 13.4102 56.3177 13.9854 57.1158C14.5607 57.9139 15.3725 58.5108 16.3058 58.822C17.2391 59.1331 18.2467 59.1426 19.1858 58.8493C20.1249 58.5559 20.9478 57.9746 21.5381 57.1875H50.6494C51.13 57.8235 51.7651 58.3262 52.4945 58.6478C53.2239 58.9695 54.0234 59.0994 54.8171 59.0254C55.6109 58.9513 56.3725 58.6757 57.0298 58.2247C57.6871 57.7736 58.2183 57.1621 58.573 56.4482C58.9276 55.7343 59.094 54.9415 59.0563 54.1453C59.0186 53.349 58.7781 52.5755 58.3575 51.8983C57.937 51.221 57.3504 50.6625 56.6534 50.2756C55.9565 49.8887 55.1722 49.6862 54.375 49.6875ZM32.8125 51.5625V38.4375H47.8125V51.5625H32.8125ZM48.75 34.6875C48.9986 34.6875 49.2371 34.7863 49.4129 34.9621C49.5887 35.1379 49.6875 35.3764 49.6875 35.625C49.6875 35.8736 49.5887 36.1121 49.4129 36.2879C49.2371 36.4637 48.9986 36.5625 48.75 36.5625H32.8125V34.6875H48.75ZM26.25 5.625C26.25 5.37636 26.3488 5.1379 26.5246 4.96209C26.7004 4.78627 26.9389 4.6875 27.1875 4.6875C27.4361 4.6875 27.6746 4.78627 27.8504 4.96209C28.0262 5.1379 28.125 5.37636 28.125 5.625V14.0625H26.25V5.625ZM15.9375 9.63469L18.6159 5.17031C18.7036 5.02452 18.7499 4.85762 18.75 4.6875V2.8125H20.625V14.0625H15.9375V9.63469ZM13.125 46.875H5.625V19.1569L13.125 19.9603V46.875ZM20.625 33.75H23.4375V39.375H20.625V33.75ZM21.5625 43.125C20.981 43.1243 20.4139 42.9437 19.9391 42.608C19.4643 42.2723 19.1049 41.798 18.9103 41.25H27.1875V43.125H21.5625ZM17.8125 57.1875C17.2562 57.1875 16.7125 57.0225 16.25 56.7135C15.7874 56.4045 15.427 55.9652 15.2141 55.4513C15.0012 54.9374 14.9455 54.3719 15.054 53.8263C15.1626 53.2807 15.4304 52.7796 15.8238 52.3863C16.2171 51.9929 16.7182 51.7251 17.2638 51.6165C17.8094 51.508 18.3749 51.5637 18.8888 51.7766C19.4027 51.9895 19.842 52.3499 20.151 52.8125C20.4601 53.275 20.625 53.8187 20.625 54.375C20.625 55.1209 20.3287 55.8363 19.8012 56.3637C19.2738 56.8912 18.5584 57.1875 17.8125 57.1875ZM22.4062 55.3125C22.5325 54.6939 22.5325 54.0561 22.4062 53.4375H28.125C28.3736 53.4375 28.6121 53.3387 28.7879 53.1629C28.9637 52.9871 29.0625 52.7486 29.0625 52.5V20.625C29.0624 20.3936 28.9768 20.1705 28.822 19.9984C28.6673 19.8264 28.4544 19.7177 28.2244 19.6931L2.8125 16.9688V15.9375H30.9375V52.5C30.9375 52.7486 31.0363 52.9871 31.2121 53.1629C31.3879 53.3387 31.6264 53.4375 31.875 53.4375H49.7812C49.655 54.0561 49.655 54.6939 49.7812 55.3125H22.4062ZM54.375 57.1875C53.8187 57.1875 53.275 57.0225 52.8125 56.7135C52.3499 56.4045 51.9895 55.9652 51.7766 55.4513C51.5637 54.9374 51.508 54.3719 51.6165 53.8263C51.7251 53.2807 51.9929 52.7796 52.3863 52.3863C52.7796 51.9929 53.2807 51.7251 53.8263 51.6165C54.3719 51.508 54.9374 51.5637 55.4513 51.7766C55.9652 51.9895 56.4045 52.3499 56.7135 52.8125C57.0225 53.275 57.1875 53.8187 57.1875 54.375C57.1875 55.1209 56.8912 55.8363 56.3637 56.3637C55.8363 56.8912 55.1209 57.1875 54.375 57.1875Z" fill="#070710"/>
</g>
<defs>
<clipPath id="clip0_2397_617">
<rect width="60" height="60" fill="white"/>
</clipPath>
</defs>
</svg>
