<svg width="56" height="60" viewBox="0 0 56 60" fill="none" xmlns="http://www.w3.org/2000/svg">
<g clip-path="url(#clip0_2397_263)">
<path d="M17.0072 41.318C16.7148 41.3171 16.4331 41.2096 16.216 41.0162C15.9989 40.8228 15.8617 40.557 15.8309 40.2699C15.8 39.9828 15.8775 39.6945 16.0486 39.4604C16.2197 39.2263 16.4723 39.0628 16.758 39.0012L17.2327 38.8992C18.5802 38.6047 19.7861 37.8664 20.6525 36.8056C21.5189 35.7449 21.9942 34.4248 22.0003 33.0621C22.0003 32.7513 22.1253 32.4533 22.3479 32.2335C22.5705 32.0137 22.8724 31.8903 23.1871 31.8903C23.5019 31.8903 23.8038 32.0137 24.0264 32.2335C24.2489 32.4533 24.374 32.7513 24.374 33.0621C24.373 34.9627 23.713 36.8057 22.5038 38.2845C21.2946 39.7633 19.6091 40.7887 17.7277 41.1903L17.2529 41.2922C17.1721 41.309 17.0898 41.3177 17.0072 41.318ZM38.9911 41.318C38.9066 41.318 38.8223 41.3094 38.7395 41.2922L38.2648 41.1903C36.3834 40.7887 34.6979 39.7633 33.4887 38.2845C32.2795 36.8057 31.6195 34.9627 31.6185 33.0621C31.6185 32.7513 31.7435 32.4533 31.9661 32.2335C32.1887 32.0137 32.4905 31.8903 32.8053 31.8903C33.1201 31.8903 33.422 32.0137 33.6445 32.2335C33.8671 32.4533 33.9922 32.7513 33.9922 33.0621C33.9975 34.427 34.4734 35.7494 35.3415 36.8117C36.2096 37.8739 37.418 38.6126 38.768 38.9063L39.2428 39.0071C39.5285 39.0686 39.7812 39.2323 39.9523 39.4665C40.1234 39.7008 40.2009 39.9892 40.1698 40.2763C40.1388 40.5635 40.0014 40.8293 39.7841 41.0226C39.5668 41.2159 39.2848 41.3232 38.9923 41.3239L38.9911 41.318Z" fill="#070710"/>
<path d="M54.8132 60H1.18684C0.872073 60 0.570194 59.8766 0.347618 59.6568C0.125042 59.437 0 59.139 0 58.8282L0 51.129C0.000815601 48.7101 0.840095 46.3645 2.37829 44.482C3.91649 42.5995 6.06094 41.2935 8.45507 40.7813L9.27637 40.6055C9.43241 40.5613 9.59599 40.5491 9.75699 40.5698C9.91798 40.5905 10.073 40.6436 10.2124 40.7257C10.3518 40.8079 10.4726 40.9175 10.5674 41.0476C10.6622 41.1777 10.7289 41.3257 10.7635 41.4823C10.7981 41.639 10.7997 41.8009 10.7684 41.9582C10.737 42.1155 10.6733 42.2648 10.5812 42.3968C10.4891 42.5288 10.3705 42.6407 10.2329 42.7257C10.0952 42.8106 9.94131 42.8668 9.78077 42.8907L8.95829 43.0665C7.09713 43.4733 5.43145 44.493 4.23486 45.9582C3.03828 47.4234 2.38195 49.2468 2.37369 51.129V57.6563H53.6263V51.129C53.6179 49.2471 52.9615 47.424 51.7649 45.9592C50.5683 44.4945 48.9027 43.4752 47.0417 43.0688L46.2192 42.8907C46.0646 42.8603 45.9177 42.7998 45.787 42.7128C45.6564 42.6257 45.5446 42.5138 45.4582 42.3836C45.3718 42.2535 45.3125 42.1076 45.2838 41.9546C45.2551 41.8015 45.2576 41.6444 45.2911 41.4923C45.3246 41.3402 45.3885 41.1962 45.4789 41.0688C45.5694 40.9413 45.6847 40.8329 45.8181 40.7499C45.9514 40.6669 46.1002 40.611 46.2557 40.5854C46.4111 40.5598 46.5702 40.5651 46.7236 40.6008L47.5449 40.7766C49.9397 41.289 52.0846 42.5954 53.6228 44.4787C55.1611 46.3619 56 48.7084 56 51.1278V58.8282C56 59.139 55.875 59.437 55.6524 59.6568C55.4298 59.8766 55.1279 60 54.8132 60ZM33.3622 21.17H22.6367C20.4265 21.1675 18.3075 20.2995 16.7447 18.7564C15.1819 17.2132 14.3028 15.121 14.3003 12.9387C14.3003 12.7848 14.331 12.6324 14.3906 12.4903C14.4503 12.3481 14.5377 12.2189 14.6479 12.1101C14.7581 12.0013 14.8889 11.9149 15.0329 11.856C15.1769 11.7972 15.3313 11.7668 15.4871 11.7668H26.1105C26.4253 11.7668 26.7272 11.8903 26.9498 12.1101C27.1723 12.3298 27.2974 12.6279 27.2974 12.9387C27.2974 13.2495 27.1723 13.5476 26.9498 13.7674C26.7272 13.9871 26.4253 14.1106 26.1105 14.1106H16.7938C17.0693 15.4407 17.8011 16.6363 18.8658 17.4954C19.9305 18.3545 21.2628 18.8246 22.6378 18.8262H33.3622C34.738 18.8267 36.0717 18.3574 37.1372 17.498C38.2027 16.6386 38.9345 15.4418 39.2085 14.1106H29.8895C29.5747 14.1106 29.2728 13.9871 29.0502 13.7674C28.8277 13.5476 28.7026 13.2495 28.7026 12.9387C28.7026 12.6279 28.8277 12.3298 29.0502 12.1101C29.2728 11.8903 29.5747 11.7668 29.8895 11.7668H40.5129C40.8277 11.7668 41.1295 11.8903 41.3521 12.1101C41.5747 12.3298 41.6997 12.6279 41.6997 12.9387C41.6999 14.0198 41.4843 15.0903 41.0654 16.0891C40.6464 17.0879 40.0322 17.9955 39.258 18.7599C38.4837 19.5242 37.5645 20.1305 36.5529 20.5441C35.5413 20.9576 34.4571 21.1703 33.3622 21.17Z" fill="#070710"/>
<path d="M28.0003 35.2898C26.3577 35.29 24.7311 34.9707 23.2135 34.35C21.6959 33.7294 20.3169 32.8197 19.1554 31.6728C17.9939 30.526 17.0725 29.1644 16.444 27.6659C15.8155 26.1674 15.492 24.5614 15.4922 22.9395V16.8457C15.4922 16.5349 15.6172 16.2368 15.8398 16.0171C16.0624 15.7973 16.3643 15.6738 16.679 15.6738C16.9938 15.6738 17.2957 15.7973 17.5183 16.0171C17.7408 16.2368 17.8659 16.5349 17.8659 16.8457V22.9395C17.8659 25.5934 18.9336 28.1386 20.8342 30.0152C22.7348 31.8918 25.3125 32.9461 28.0003 32.9461C30.6881 32.9461 33.2659 31.8918 35.1665 30.0152C37.067 28.1386 38.1348 25.5934 38.1348 22.9395V16.8457C38.1348 16.5349 38.2598 16.2368 38.4824 16.0171C38.705 15.7973 39.0068 15.6738 39.3216 15.6738C39.6364 15.6738 39.9383 15.7973 40.1608 16.0171C40.3834 16.2368 40.5085 16.5349 40.5085 16.8457V22.9395C40.5047 26.2138 39.1857 29.353 36.8407 31.6684C34.4958 33.9837 31.3165 35.2861 28.0003 35.2898Z" fill="#070710"/>
<path d="M27.9993 30.5918C26.7472 30.5918 25.4951 30.1113 24.2786 29.1504C24.035 28.9556 23.8793 28.6735 23.8456 28.3658C23.8118 28.058 23.9028 27.7496 24.0986 27.5079C24.2944 27.2661 24.5791 27.1107 24.8905 27.0754C25.202 27.0402 25.5149 27.1281 25.7609 27.3199C27.3038 28.5422 28.6889 28.5422 30.2365 27.3199C30.3582 27.2237 30.498 27.1522 30.6477 27.1093C30.7974 27.0664 30.9543 27.0531 31.1092 27.0701C31.2642 27.0871 31.4142 27.134 31.5508 27.2082C31.6874 27.2825 31.8078 27.3825 31.9052 27.5027C32.0026 27.6229 32.0751 27.7609 32.1185 27.9087C32.1619 28.0566 32.1754 28.2114 32.1582 28.3644C32.1411 28.5174 32.0935 28.6656 32.0183 28.8004C31.9431 28.9353 31.8418 29.0542 31.7201 29.1504C30.5012 30.1172 29.2514 30.5918 27.9993 30.5918ZM40.5122 14.1105H29.8888C29.574 14.1105 29.2721 13.9871 29.0496 13.7673C28.827 13.5475 28.7019 13.2495 28.7019 12.9387C28.7019 12.6279 28.827 12.3298 29.0496 12.11C29.2721 11.8903 29.574 11.7668 29.8888 11.7668H39.3254V9.74648C39.3232 7.78382 38.5326 5.90217 37.127 4.51436C35.7215 3.12655 33.8158 2.34592 31.8281 2.34375H24.1706C22.1828 2.34592 20.2772 3.12655 18.8716 4.51436C17.4661 5.90217 16.6755 7.78382 16.6733 9.74648V11.7668H26.1099C26.4246 11.7668 26.7265 11.8903 26.9491 12.11C27.1717 12.3298 27.2967 12.6279 27.2967 12.9387C27.2967 13.2495 27.1717 13.5475 26.9491 13.7673C26.7265 13.9871 26.4246 14.1105 26.1099 14.1105H15.4876C15.1729 14.1105 14.871 13.9871 14.6484 13.7673C14.4258 13.5475 14.3008 13.2495 14.3008 12.9387V9.74648C14.3036 7.16261 15.3443 4.68536 17.1946 2.85818C19.0449 1.03099 21.5537 0.00310187 24.1706 0L31.8281 0C34.4452 0.00279175 36.9542 1.03055 38.8048 2.85776C40.6553 4.68498 41.6962 7.16241 41.6991 9.74648V12.9387C41.6991 13.2495 41.574 13.5475 41.3514 13.7673C41.1289 13.9871 40.827 14.1105 40.5122 14.1105Z" fill="#070710"/>
<path d="M28.0014 16.4637C27.8348 16.4636 27.6701 16.429 27.518 16.362C27.3658 16.2949 27.2297 16.197 27.1184 16.0746C26.4182 15.3035 24.1335 12.6527 24.1335 10.8797C24.1335 9.86679 24.541 8.89537 25.2664 8.17915C25.9918 7.46292 26.9756 7.06055 28.0014 7.06055C29.0273 7.06055 30.0111 7.46292 30.7365 8.17915C31.4618 8.89537 31.8694 9.86679 31.8694 10.8797C31.8694 12.6527 29.5847 15.3035 28.8844 16.0746C28.7732 16.197 28.637 16.2949 28.4849 16.362C28.3327 16.429 28.168 16.4636 28.0014 16.4637ZM28.0014 9.4043C27.6052 9.40461 27.2253 9.56015 26.9452 9.83677C26.665 10.1134 26.5075 10.4885 26.5072 10.8797C26.5072 11.2793 27.1505 12.3609 28.0002 13.4578C28.8512 12.3621 29.4957 11.2805 29.4957 10.8797C29.4953 10.4885 29.3378 10.1134 29.0577 9.83677C28.7775 9.56015 28.3976 9.40461 28.0014 9.4043ZM46.4723 60H9.53059C9.21582 60 8.91394 59.8765 8.69137 59.6568C8.46879 59.437 8.34375 59.1389 8.34375 58.8281C8.34375 58.5173 8.46879 58.2193 8.69137 57.9995C8.91394 57.7797 9.21582 57.6562 9.53059 57.6562H45.2854V38.8207H40.4455C40.2534 40.6009 39.6196 42.3069 38.6002 43.7874C37.5808 45.268 36.2073 46.4774 34.6015 47.3086L28.5545 50.4516C28.384 50.5402 28.1942 50.5866 28.0014 50.5866C27.8087 50.5866 27.6189 50.5402 27.4484 50.4516L21.3955 47.3086C19.7896 46.4774 18.4161 45.268 17.3967 43.7874C16.3774 42.3069 15.7435 40.6009 15.5514 38.8207H10.7174V47.1234C10.7174 47.4342 10.5924 47.7323 10.3698 47.9521C10.1472 48.1718 9.84536 48.2953 9.53059 48.2953C9.21582 48.2953 8.91394 48.1718 8.69137 47.9521C8.46879 47.7323 8.34375 47.4342 8.34375 47.1234V37.6488C8.34375 37.338 8.46879 37.04 8.69137 36.8202C8.91394 36.6004 9.21582 36.477 9.53059 36.477H16.6801C16.9949 36.477 17.2968 36.6004 17.5194 36.8202C17.7419 37.04 17.867 37.338 17.867 37.6488C17.8652 39.211 18.2966 40.7438 19.1144 42.081C19.9323 43.4182 21.1053 44.5087 22.5063 45.2344L28.0014 48.0902L33.4965 45.2344C34.8975 44.5087 36.0706 43.4182 36.8884 42.081C37.7063 40.7438 38.1377 39.211 38.1359 37.6488C38.1359 37.338 38.2609 37.04 38.4835 36.8202C38.7061 36.6004 39.008 36.477 39.3227 36.477H46.4723C46.787 36.477 47.0889 36.6004 47.3115 36.8202C47.5341 37.04 47.6591 37.338 47.6591 37.6488V58.8281C47.6591 59.1389 47.5341 59.437 47.3115 59.6568C47.0889 59.8765 46.787 60 46.4723 60Z" fill="#070710"/>
<path d="M41.7045 60H32.1706C31.8558 60 31.5539 59.8765 31.3313 59.6568C31.1088 59.437 30.9837 59.1389 30.9837 58.8281V54.1219C30.9837 53.8111 31.1088 53.513 31.3313 53.2932C31.5539 53.0735 31.8558 52.95 32.1706 52.95H41.7045C42.0192 52.95 42.3211 53.0735 42.5437 53.2932C42.7663 53.513 42.8913 53.8111 42.8913 54.1219V58.8281C42.8913 59.1389 42.7663 59.437 42.5437 59.6568C42.3211 59.8765 42.0192 60 41.7045 60ZM33.3574 57.6563H40.5176V55.2938H33.3574V57.6563ZM54.8132 54.1172H46.4708C46.1561 54.1172 45.8542 53.9937 45.6316 53.774C45.409 53.5542 45.284 53.2561 45.284 52.9453C45.284 52.6345 45.409 52.3364 45.6316 52.1167C45.8542 51.8969 46.1561 51.7734 46.4708 51.7734H54.8132C55.1279 51.7734 55.4298 51.8969 55.6524 52.1167C55.875 52.3364 56 52.6345 56 52.9453C56 53.2561 55.875 53.5542 55.6524 53.774C55.4298 53.9937 55.1279 54.1172 54.8132 54.1172ZM8.33757 54.1172H1.18684C0.872073 54.1172 0.570194 53.9937 0.347618 53.774C0.125042 53.5542 0 53.2561 0 52.9453C0 52.6345 0.125042 52.3364 0.347618 52.1167C0.570194 51.8969 0.872073 51.7734 1.18684 51.7734H8.33757C8.65234 51.7734 8.95422 51.8969 9.1768 52.1167C9.39937 52.3364 9.52442 52.6345 9.52442 52.9453C9.52442 53.2561 9.39937 53.5542 9.1768 53.774C8.95422 53.9937 8.65234 54.1172 8.33757 54.1172Z" fill="#070710"/>
<path d="M16.6803 60H8.33919C8.02442 60 7.72254 59.8765 7.49996 59.6567C7.27739 59.4369 7.15234 59.1389 7.15234 58.8281V48.6867C7.15297 47.9452 7.45149 47.2342 7.98238 46.7098C8.51328 46.1854 9.23319 45.8903 9.98415 45.8894H15.0354C15.7862 45.8906 16.5059 46.1858 17.0368 46.7101C17.5676 47.2345 17.8662 47.9453 17.8672 48.6867V58.8281C17.8672 59.1389 17.7421 59.4369 17.5195 59.6567C17.297 59.8765 16.9951 60 16.6803 60ZM9.52603 57.6562H15.4935V48.6867C15.4935 48.5666 15.4452 48.4514 15.3594 48.3664C15.2735 48.2814 15.157 48.2335 15.0354 48.2332H9.98415C9.86254 48.2335 9.74602 48.2814 9.66014 48.3664C9.57426 48.4514 9.52603 48.5666 9.52603 48.6867V57.6562Z" fill="#070710"/>
<path d="M16.6796 54.1172H13.1048C12.79 54.1172 12.4882 53.9937 12.2656 53.774C12.043 53.5542 11.918 53.2561 11.918 52.9453C11.918 52.6345 12.043 52.3364 12.2656 52.1167C12.4882 51.8969 12.79 51.7734 13.1048 51.7734H16.6796C16.9944 51.7734 17.2962 51.8969 17.5188 52.1167C17.7414 52.3364 17.8664 52.6345 17.8664 52.9453C17.8664 53.2561 17.7414 53.5542 17.5188 53.774C17.2962 53.9937 16.9944 54.1172 16.6796 54.1172Z" fill="#070710"/>
</g>
<defs>
<clipPath id="clip0_2397_263">
<rect width="56" height="60" fill="white"/>
</clipPath>
</defs>
</svg>
