<svg width="32" height="32" viewBox="0 0 32 32" fill="none" xmlns="http://www.w3.org/2000/svg">
<path d="M21.1819 2.92004H10.8219C10.0527 2.92004 9.31512 3.22558 8.77127 3.76943C8.22741 4.31329 7.92188 5.05092 7.92188 5.82004V26.18C7.92187 26.9492 8.22741 27.6868 8.77127 28.2307C9.31512 28.7745 10.0527 29.08 10.8219 29.08H21.1819C21.951 29.08 22.6886 28.7745 23.2325 28.2307C23.7763 27.6868 24.0819 26.9492 24.0819 26.18V5.82004C24.0819 5.05092 23.7763 4.31329 23.2325 3.76943C22.6886 3.22558 21.951 2.92004 21.1819 2.92004ZM21.9219 26.18C21.9219 26.3763 21.8439 26.5645 21.7051 26.7033C21.5664 26.8421 21.3781 26.92 21.1819 26.92H10.8219C10.6256 26.92 10.4374 26.8421 10.2986 26.7033C10.1598 26.5645 10.0819 26.3763 10.0819 26.18V5.82004C10.0819 5.62378 10.1598 5.43556 10.2986 5.29678C10.4374 5.15801 10.6256 5.08004 10.8219 5.08004H21.1819C21.3781 5.08004 21.5664 5.15801 21.7051 5.29678C21.8439 5.43556 21.9219 5.62378 21.9219 5.82004V26.18Z" fill="#FCB131"/>
<path d="M17.0019 23.92H15.0019C14.7154 23.92 14.4407 24.0338 14.2382 24.2364C14.0357 24.4389 13.9219 24.7136 13.9219 25C13.9219 25.2865 14.0357 25.5612 14.2382 25.7637C14.4407 25.9663 14.7154 26.08 15.0019 26.08H17.0019C17.2883 26.08 17.563 25.9663 17.7656 25.7637C17.9681 25.5612 18.0819 25.2865 18.0819 25C18.0819 24.7136 17.9681 24.4389 17.7656 24.2364C17.563 24.0338 17.2883 23.92 17.0019 23.92Z" fill="#FCB131"/>
</svg>
