<svg width="29" height="29" viewBox="0 0 29 29" fill="none" xmlns="http://www.w3.org/2000/svg">
<path d="M14.5016 25.3297C8.52031 25.3297 3.67188 20.4812 3.67188 14.5C3.67188 8.51872 8.52031 3.67029 14.5016 3.67029C20.4828 3.67029 25.3312 8.51872 25.3312 14.5C25.3312 20.4812 20.4828 25.3297 14.5016 25.3297ZM14.5016 4.84842C9.2 4.84842 4.85 9.19841 4.85 14.5C4.85 19.8015 9.2 24.1515 14.5016 24.1515C19.8031 24.1515 24.1531 19.8015 24.1531 14.5C24.1531 9.19841 19.8031 4.84842 14.5016 4.84842Z" fill="#FCB131"/>
<path d="M14.2766 20.7078L13.4609 19.8468L18.7625 14.4999L13.4609 9.15306L14.2766 8.29211L20.4844 14.4999L14.2766 20.7078Z" fill="#FCB131"/>
<path d="M19.6211 15.1343H8.74609V13.8656H19.6211V15.1343Z" fill="#FCB131"/>
</svg>
