<svg width="53" height="47" viewBox="0 0 53 47" fill="none" xmlns="http://www.w3.org/2000/svg">
<path d="M51.3305 19.9769H48.4342L43.7827 0.731265C43.7366 0.540606 43.6278 0.370964 43.4737 0.249574C43.3196 0.128183 43.1292 0.0620849 42.9331 0.0618896H9.01109C8.81479 0.0618887 8.62419 0.127897 8.46993 0.249303C8.31568 0.370709 8.20673 0.54046 8.16059 0.731265L3.50997 19.9813H1.54297C1.3109 19.9813 1.08834 20.0735 0.92425 20.2375C0.760156 20.4016 0.667969 20.6242 0.667969 20.8563V26.6986C0.667969 26.9307 0.760156 27.1533 0.92425 27.3174C1.08834 27.4815 1.3109 27.5736 1.54297 27.5736H4.25547V30.9468C4.25547 31.1788 4.34766 31.4014 4.51175 31.5655C4.67584 31.7296 4.8984 31.8218 5.13047 31.8218H7.17622V45.8218C7.17622 46.0538 7.26841 46.2764 7.4325 46.4405C7.59659 46.6046 7.81915 46.6968 8.05122 46.6968H13.8927C14.1248 46.6968 14.3473 46.6046 14.5114 46.4405C14.6755 46.2764 14.7677 46.0538 14.7677 45.8218V41.5815C14.7677 36.93 20.0037 33.1456 26.4393 33.1456C32.875 33.1456 38.111 36.93 38.111 41.6331V45.8156C38.111 46.0477 38.2032 46.2703 38.3673 46.4344C38.5313 46.5985 38.7539 46.6906 38.986 46.6906H44.8275C45.0595 46.6906 45.2821 46.5985 45.4462 46.4344C45.6103 46.2703 45.7025 46.0477 45.7025 45.8156V31.8156H47.7491C47.9812 31.8156 48.2037 31.7235 48.3678 31.5594C48.5319 31.3953 48.6241 31.1727 48.6241 30.9406V27.5693H51.3366C51.5687 27.5693 51.7912 27.4771 51.9553 27.313C52.1194 27.1489 52.2116 26.9263 52.2116 26.6943V20.8519C52.2116 20.7365 52.1888 20.6222 52.1444 20.5156C52.1001 20.4091 52.0351 20.3123 51.9532 20.231C51.8713 20.1497 51.7741 20.0853 51.6672 20.0417C51.5603 19.9981 51.4459 19.9761 51.3305 19.9769ZM46.6343 19.9769H44.6096L40.2206 1.81189H42.2436L46.6343 19.9769ZM24.3463 19.9769H9.13447L13.2128 3.09901L24.3463 19.9769ZM14.4588 1.81189H37.4827L25.9721 19.2629L14.4588 1.81189ZM38.7313 3.09901L42.8097 19.9769H27.5978L38.7313 3.09901ZM9.69972 1.81189H11.7236L7.33372 19.9769H5.31072L9.69972 1.81189ZM6.00284 27.5693H15.9367V30.0674H6.00284V27.5693ZM13.0151 44.938H8.92359V31.813H13.0151V44.938ZM26.4367 31.4C21.4361 31.4 17.0742 33.4895 14.7651 36.5748V31.8174H16.8117C17.0438 31.8174 17.2663 31.7252 17.4304 31.5611C17.5945 31.397 17.6867 31.1745 17.6867 30.9424V27.5693H35.1867V30.9424C35.1867 31.1745 35.2789 31.397 35.443 31.5611C35.6071 31.7252 35.8297 31.8174 36.0617 31.8174H38.1075V36.5704C35.7992 33.4851 31.4373 31.4 26.4367 31.4ZM43.9498 44.938H39.8583V31.813H43.9498V44.938ZM46.8715 30.063H36.9367V27.5693H46.8715V30.063ZM50.459 25.8149H2.41797V21.7269H50.4555L50.459 25.8149Z" fill="#070710"/>
</svg>
