<svg width="61" height="61" viewBox="0 0 61 61" fill="none" xmlns="http://www.w3.org/2000/svg">
<path d="M36.8542 11.4375H24.1458C23.4443 11.4375 22.875 10.8682 22.875 10.1667V1.27083C22.875 0.569333 23.4443 0 24.1458 0C26.6977 0 27.9355 1.01031 28.8403 1.74867C29.5126 2.29894 29.8379 2.54167 30.5 2.54167C31.1621 2.54167 31.4874 2.29894 32.1597 1.74867C33.0645 1.01031 34.3023 0 36.8542 0C37.5557 0 38.125 0.569333 38.125 1.27083V10.1667C38.125 10.8682 37.5557 11.4375 36.8542 11.4375ZM25.4167 8.89583H35.5833V2.68273C34.7891 2.88479 34.3036 3.28129 33.7673 3.71846C33.0226 4.32592 32.0949 5.08333 30.5 5.08333C28.9051 5.08333 27.9774 4.32592 27.2327 3.71846C26.6964 3.28129 26.2109 2.88479 25.4167 2.68273V8.89583Z" fill="#FCB131"/>
<path d="M39.3971 19.9267C39.082 19.9267 38.7757 19.8098 38.5406 19.595C38.2775 19.3548 38.1263 19.013 38.1263 18.6559V17.7917C38.1263 17.0915 37.5557 16.5209 36.8555 16.5209H24.1471C23.4469 16.5209 22.8763 17.0915 22.8763 17.7917V18.6559C22.8763 19.013 22.7251 19.3548 22.462 19.595C22.1977 19.8352 21.8444 19.9521 21.4886 19.9203C15.8359 19.3968 6.35547 17.9264 6.35547 13.9792C6.35547 9.45121 18.741 8.17149 24.0658 7.8309C24.4229 7.80421 24.7609 7.93257 25.0164 8.17276C25.2223 8.36592 25.357 8.62136 25.4014 8.89586H35.5999C35.6444 8.62136 35.7791 8.36592 35.9849 8.17276C36.2404 7.93257 36.5772 7.80294 36.9355 7.8309C42.2616 8.17149 54.6471 9.45249 54.6471 13.9792C54.6471 17.9264 45.1667 19.3968 39.5141 19.9216C39.4759 19.9254 39.4365 19.9267 39.3971 19.9267ZM22.9106 10.4615C13.5306 11.2012 9.15257 13.101 8.89459 14.0033C9.08522 14.6451 12.2559 16.3569 20.3728 17.2541C20.6346 15.4051 22.2269 13.9792 24.1471 13.9792H36.8555C38.7757 13.9792 40.3681 15.4051 40.6298 17.2541C48.6602 16.3658 51.85 14.6782 52.1004 13.9805C51.7776 13.0705 47.3945 11.1961 38.092 10.4615C37.9586 11.0207 37.4566 11.4375 36.8555 11.4375H24.1471C23.546 11.4375 23.0441 11.0207 22.9106 10.4615Z" fill="#FCB131"/>
<path d="M30.4987 33.0417C28.9623 33.0417 27.4932 32.7087 26.1334 32.0504C22.5585 30.3628 20.332 26.8451 20.332 22.875V17.7917C20.332 15.6897 22.0426 13.9792 24.1445 13.9792H36.8529C38.9548 13.9792 40.6654 15.6897 40.6654 17.7917V22.875C40.6654 26.8451 38.4389 30.3628 34.8538 32.0555C33.5042 32.7087 32.0351 33.0417 30.4987 33.0417ZM24.1445 16.5209C23.4443 16.5209 22.8737 17.0915 22.8737 17.7917V22.875C22.8737 25.8513 24.5423 28.4883 27.2288 29.7579C29.2736 30.7466 31.7327 30.7415 33.7584 29.7629C36.4551 28.4883 38.1237 25.8513 38.1237 22.875V17.7917C38.1237 17.0915 37.5531 16.5209 36.8529 16.5209H24.1445Z" fill="#FCB131"/>
<path d="M26.6884 22.875C26.6122 22.875 26.5232 22.8623 26.4343 22.8496C26.358 22.8369 26.2818 22.8114 26.2055 22.7733C26.1293 22.7479 26.053 22.7098 25.9768 22.6589C25.9132 22.6208 25.8497 22.5573 25.7861 22.5064C25.6718 22.3794 25.5828 22.2396 25.5193 22.0871C25.4557 21.9346 25.4176 21.7694 25.4176 21.6041C25.4176 21.4389 25.4557 21.2737 25.5193 21.1212C25.5828 20.956 25.6718 20.8289 25.7861 20.7019C25.8497 20.651 25.9132 20.5875 25.9768 20.5494C26.053 20.4985 26.1293 20.4604 26.2055 20.435C26.2818 20.3969 26.358 20.3714 26.4343 20.3587C26.5995 20.3206 26.7774 20.3206 26.9426 20.3587C27.0188 20.3714 27.0951 20.3969 27.1713 20.435C27.2476 20.4604 27.3238 20.4985 27.4001 20.5494C27.4636 20.5875 27.5272 20.651 27.5907 20.7019C27.7051 20.8289 27.794 20.956 27.8576 21.1212C27.9338 21.2737 27.9593 21.4389 27.9593 21.6041C27.9593 21.7694 27.9338 21.9346 27.8576 22.0871C27.794 22.2396 27.7051 22.3794 27.5907 22.5064C27.5272 22.5573 27.4636 22.6208 27.4001 22.6589C27.3238 22.7098 27.2476 22.7479 27.1713 22.7733C27.0951 22.8114 27.0188 22.8369 26.9426 22.8496C26.8536 22.8623 26.7647 22.875 26.6884 22.875ZM34.3134 22.875C34.1482 22.875 33.983 22.8369 33.8305 22.7733C33.6653 22.7098 33.5382 22.6208 33.4111 22.5064C33.3603 22.4429 33.3095 22.3794 33.2586 22.3158C33.2078 22.2396 33.1697 22.1633 33.1443 22.0871C33.1061 22.0108 33.0807 21.9346 33.068 21.8583C33.0553 21.7694 33.0426 21.6804 33.0426 21.6041C33.0426 21.2737 33.1824 20.9433 33.4111 20.7019C33.5382 20.5875 33.678 20.4985 33.8305 20.435C34.3007 20.2316 34.8599 20.346 35.2157 20.7019C35.4445 20.9433 35.5843 21.2737 35.5843 21.6041C35.5843 21.6804 35.5715 21.7694 35.5588 21.8583C35.5461 21.9346 35.5207 22.0108 35.4826 22.0871C35.4572 22.1633 35.419 22.2396 35.3682 22.3158C35.3301 22.3794 35.2665 22.4429 35.2157 22.5064C34.9743 22.7352 34.6438 22.875 34.3134 22.875ZM30.5009 50.8333H30.323C25.9996 50.7202 22.2532 47.2979 20.4448 43.9556C18.8868 41.0771 18.5767 38.1936 19.54 35.8705C18.2831 34.5857 17.621 33.0912 17.6172 31.5001C17.6109 29.4274 18.7114 27.4233 20.7981 25.7064C21.3408 25.2603 22.1401 25.3379 22.5862 25.8805C23.0322 26.4231 22.9547 27.2238 22.4121 27.6686C20.9328 28.886 20.1538 30.2077 20.1576 31.4925C20.1614 32.8841 21.1133 33.949 21.9101 34.5972C22.4057 34.9987 22.5252 35.7066 22.1909 36.2492C21.1819 37.8886 21.3636 40.3159 22.6789 42.7457C24.0934 45.3573 26.4635 47.3589 28.8082 48.0413L25.9132 36.4386C25.7429 35.7574 26.1572 35.0674 26.8384 34.8983C27.5221 34.7319 28.2096 35.1423 28.3786 35.8235L31.7311 49.246C31.8289 49.6273 31.7463 50.0314 31.5049 50.3428C31.2634 50.6541 30.8949 50.8333 30.5009 50.8333Z" fill="#FCB131"/>
<path d="M30.3218 50.8333C29.9278 50.8333 29.5567 50.6503 29.3165 50.339C29.0763 50.0276 28.9925 49.6235 29.0916 49.2422L32.5864 35.8591C32.7643 35.1805 33.4544 34.7725 34.1381 34.9504C34.8167 35.1284 35.2234 35.8222 35.0467 36.5021L32.0323 48.0413C34.3592 47.3601 36.7293 45.3586 38.1437 42.7457C39.4591 40.3159 39.6408 37.8886 38.6317 36.2492C38.2975 35.7066 38.417 34.9987 38.9126 34.5972C39.7094 33.949 40.6613 32.8841 40.6651 31.4925C40.6689 30.2077 39.8899 28.886 38.4106 27.6686C37.868 27.2225 37.7905 26.4219 38.2365 25.8805C38.6826 25.3391 39.4832 25.2603 40.0246 25.7064C42.1126 27.4246 43.2118 29.4274 43.2055 31.5001C43.2017 33.0912 42.5396 34.5857 41.2827 35.8705C42.246 38.1936 41.9359 41.0771 40.3779 43.9556C38.5695 47.2979 34.8231 50.7202 30.5327 50.8321L30.3218 50.8333Z" fill="#FCB131"/>
<path d="M30.5013 39.3959C28.6637 39.3959 26.976 38.4097 26.0737 36.8161C26.0496 36.7805 26.028 36.7436 26.0089 36.708C25.6226 35.971 25.418 35.1424 25.418 34.3125V30.9067C25.418 30.4695 25.6429 30.0629 26.014 29.8303C26.3851 29.5977 26.8502 29.5736 27.2416 29.7629C29.2673 30.7427 31.7353 30.7427 33.761 29.7629C34.1537 29.5736 34.6188 29.599 34.9886 29.8303C35.3597 30.0629 35.5846 30.4695 35.5846 30.9067V34.3125C35.5846 35.2008 35.3533 36.0675 34.9162 36.8199C34.0304 38.4021 32.3351 39.3959 30.5013 39.3959ZM28.2252 35.4588C28.2392 35.4804 28.2519 35.502 28.2634 35.5236C28.7082 36.3446 29.566 36.8542 30.5013 36.8542C31.4163 36.8542 32.2614 36.3573 32.7087 35.5592C32.9349 35.1729 33.043 34.7586 33.043 34.3125V32.7214C31.4023 33.1472 29.6003 33.1472 27.9596 32.7214V34.3125C27.9596 34.709 28.0511 35.103 28.2252 35.4588Z" fill="#FCB131"/>
<path d="M48.2917 61H12.7083C12.0068 61 11.4375 60.4306 11.4375 59.7291V44.4791C11.4375 39.5737 15.4279 35.5833 20.3333 35.5833C21.0348 35.5833 21.6042 36.1526 21.6042 36.8541C21.6042 37.5556 21.0348 38.125 20.3333 38.125C16.8296 38.125 13.9792 40.9755 13.9792 44.4791V58.4583H47.0208V44.4791C47.0208 40.9755 44.1704 38.125 40.6667 38.125C39.9652 38.125 39.3958 37.5556 39.3958 36.8541C39.3958 36.1526 39.9652 35.5833 40.6667 35.5833C45.5721 35.5833 49.5625 39.5737 49.5625 44.4791V59.7291C49.5625 60.4306 48.9932 61 48.2917 61Z" fill="#FCB131"/>
<path d="M17.7904 61C17.0889 61 16.5195 60.4307 16.5195 59.7292V50.8333C16.5195 50.1318 17.0889 49.5625 17.7904 49.5625C18.4919 49.5625 19.0612 50.1318 19.0612 50.8333V59.7292C19.0612 60.4307 18.4919 61 17.7904 61ZM43.207 61C42.5055 61 41.9362 60.4307 41.9362 59.7292V50.8333C41.9362 50.1318 42.5055 49.5625 43.207 49.5625C43.9085 49.5625 44.4779 50.1318 44.4779 50.8333V59.7292C44.4779 60.4307 43.9085 61 43.207 61Z" fill="#FCB131"/>
</svg>
