<?xml version="1.0" encoding="UTF-8"?>
<!DOCTYPE svg PUBLIC "-//W3C//DTD SVG 1.1//EN" "http://www.w3.org/Graphics/SVG/1.1/DTD/svg11.dtd">
<!-- Creator: CorelDRAW X6 -->
<svg xmlns="http://www.w3.org/2000/svg" xml:space="preserve" width="6in" height="4in" version="1.1" style="shape-rendering:geometricPrecision; text-rendering:geometricPrecision; image-rendering:optimizeQuality; fill-rule:evenodd; clip-rule:evenodd"
viewBox="0 0 6000 4000"
 xmlns:xlink="http://www.w3.org/1999/xlink">
 <defs>
  <style type="text/css">
   <![CDATA[
    .str3 {stroke:#CB7909;stroke-width:3}
    .str2 {stroke:#373435;stroke-width:7.87402}
    .str4 {stroke:#747263;stroke-width:7.87402}
    .str1 {stroke:#CB7909;stroke-width:7.87402}
    .str0 {stroke:#FCB131;stroke-width:7.87402}
    .fil2 {fill:none}
    .fil5 {fill:#373435}
    .fil3 {fill:#606062}
    .fil4 {fill:#747263}
    .fil1 {fill:#CB7909}
    .fil0 {fill:#FCB131}
    .fil6 {fill:#FEFEFE;fill-rule:nonzero}
   ]]>
  </style>
 </defs>
 <g id="Layer_x0020_1">
  <metadata id="CorelCorpID_0Corel-Layer"/>
  <g id="_1047170400">
   <path class="fil0 str0" d="M1034 985c297,102 587,232 870,389 31,38 67,64 105,85 -55,-9 -93,-2 -107,26 -335,-108 -659,-231 -868,-500z"/>
   <path class="fil0 str0" d="M960 1157c320,143 642,274 973,375 30,31 63,51 96,66 -42,29 -50,61 -7,99 -440,-111 -803,-284 -1063,-540z"/>
   <path class="fil0 str0" d="M1151 1446c322,118 647,225 974,319 -61,6 -88,27 -64,70 -346,-46 -664,-156 -910,-389z"/>
   <path class="fil0 str0" d="M1374 1700l755 176c31,32 65,53 102,68 -300,37 -586,-43 -857,-243z"/>
   <path class="fil0 str0" d="M1636 1941c92,20 187,32 291,31 -3,56 34,92 98,117 -155,-18 -284,-69 -389,-148z"/>
   <path class="fil1 str1" d="M1027 984c236,177 531,361 813,419l63 83c-357,-87 -694,-285 -875,-502z"/>
   <path class="fil1 str1" d="M977 1164c236,177 616,358 897,416l73 97c-357,-87 -789,-296 -970,-513z"/>
   <path class="fil1 str1" d="M1389 1703c223,108 460,186 721,210l74 25c-311,33 -570,-59 -794,-235z"/>
   <path class="fil1 str1" d="M1648 1944l254 81 63 49c-104,-14 -242,-72 -316,-130z"/>
   <path class="fil1 str1" d="M1163 1458c276,155 556,265 842,315l56 63c-344,-32 -662,-168 -898,-378z"/>
  </g>
  <g id="_1047165280">
   <path class="fil0 str0" d="M4797 985c-297,102 -587,232 -870,389 -31,38 -67,64 -105,85 55,-9 93,-2 107,26 335,-108 659,-231 868,-500z"/>
   <path class="fil0 str0" d="M4870 1157c-320,143 -642,274 -973,375 -30,31 -63,51 -96,66 42,29 50,61 7,99 440,-111 803,-284 1063,-540z"/>
   <path class="fil0 str0" d="M4680 1446c-322,118 -647,225 -974,319 61,6 88,27 64,70 346,-46 664,-156 910,-389z"/>
   <path class="fil0 str0" d="M4457 1700l-755 176c-31,32 -65,53 -102,68 300,37 586,-43 857,-243z"/>
   <path class="fil0 str0" d="M4194 1941c-92,20 -187,32 -291,31 3,56 -34,92 -98,117 155,-18 284,-69 389,-148z"/>
   <path class="fil1 str1" d="M4804 984c-236,177 -531,361 -813,419l-63 83c357,-87 694,-285 875,-502z"/>
   <path class="fil1 str1" d="M4854 1164c-236,177 -616,358 -897,416l-73 97c357,-87 789,-296 970,-513z"/>
   <path class="fil1 str1" d="M4442 1703c-223,108 -460,186 -721,210l-74 25c311,33 570,-59 794,-235z"/>
   <path class="fil1 str1" d="M4183 1944l-254 81 -63 49c104,-14 242,-72 316,-130z"/>
   <path class="fil1 str1" d="M4667 1458c-276,155 -556,265 -842,315l-56 63c344,-32 662,-168 898,-378z"/>
  </g>
  <path class="fil0 str2" d="M1916 1328c217,59 436,132 656,219 -275,267 -52,504 162,403l51 -59 -36 -5 63 -70 -49 -4 39 -25 13 -16 -55 1 51 -39 1 -7c17,-23 7,-32 -25,-29l-28 17c-13,2 -22,-1 -26,-12 -4,-11 65,-30 74,-55 9,-25 73,-57 100,-63 27,-5 62,1 72,4 9,3 40,19 38,22l-4 18c0,-2 24,1 30,7 8,3 55,76 35,57 -20,-18 -45,-26 -85,-21l-17 31c38,-8 62,-3 98,13 -26,16 -54,23 -83,25 22,9 40,22 52,40l-30 23c26,20 51,43 70,72l-35 17c155,224 523,-16 227,-320 -13,-53 256,-138 646,-236 -88,117 -168,153 -282,176 83,-11 148,-12 259,-24 -101,89 -188,139 -320,170l237 -18c-72,83 -160,134 -264,155 61,12 128,8 198,-3 -72,111 -162,138 -256,145 105,55 236,74 389,61 -140,120 -301,75 -465,-7 106,105 240,136 383,142 -133,105 -282,67 -443,-64 88,118 217,169 349,215 -95,64 -243,1 -423,-137 64,92 147,161 242,214 -87,35 -193,-14 -323,-165 35,75 90,133 158,179 -80,-13 -159,-50 -236,-132 28,59 60,111 106,156l-161 -94c-42,-6 -38,7 -15,50l107 42 -40 35 61 30 6 16 18 -3 12 -10 19 -6 10 0 15 1 3 7 4 7 -18 0 -10 5 -6 14 13 12 12 14 6 5 0 12 0 7 -5 15 -12 3 -2 -7 -12 -8 -10 -7 -8 -5 -3 11 3 12 -1 10 -7 5 -10 -8 -9 -7 -4 -10 -1 -7 -3 -16 -5 -7 -21 24 -21 12 -19 2 -11 2 2 -10 4 -8 9 -9 5 -11 10 -5 18 -4 1 -11 2 -8 -7 -12 -16 -13 -25 -10 -7 -4c0,0 -8,17 -8,31 0,14 -3,21 -3,21l-14 -28 -14 -23c0,0 -18,-18 -24,-23 -6,-6 -21,-18 -21,-18l-15 2 -8 12 3 14 10 29c63,222 170,319 268,411 -83,26 -162,7 -234,-100 4,73 25,128 55,174l-99 14 -19 -45 -13 47 -79 -5 -17 -47 -12 42 -116 -8 72 -181c-81,98 -161,131 -238,111 109,-124 206,-263 277,-436 -4,-66 -53,-45 -87,39l-18 4 -3 -14 -4 -16 -18 6 -8 7 -16 8 -3 7 8 9 -3 8 12 3 8 1 15 14 7 13c0,0 -5,14 -7,19 -2,5 -10,16 -10,16 0,0 -4,5 -7,1 -3,-4 -8,-16 -8,-16l-11 -8 -7 -9 -13 -10 -12 8 -1 13 -10 10 -8 8 -8 10 -9 1 -7 -8c0,0 -1,-10 -1,-14 0,-4 -2,-9 -2,-9l-16 1c0,0 -4,-3 -7,1 -3,4 -3,3 -5,7 -1,4 -5,4 -7,9 -3,5 -6,12 -6,12l-7 6 -6 -14c0,0 -1,-12 0,-17 1,-5 8,-22 8,-22l21 -20 12 -12 -7 -14 -5 -6 -14 -1 -16 1 -5 -12c0,0 27,-4 31,-5 4,-1 18,-4 18,-4l7 10 12 10 21 5 59 -42 7 -5 3 -14 -18 -4 -30 -15c40,-11 80,-23 113,-51 36,-43 3,-72 -35,-36l-145 84c47,-50 89,-103 124,-161 -72,64 -149,115 -234,146l145 -189c-107,131 -215,205 -322,177 87,-68 169,-143 247,-228 -172,138 -320,215 -418,154 125,-62 238,-136 337,-225 -205,123 -364,171 -435,77l363 -141c-221,81 -389,103 -447,-4 135,9 260,-13 375,-68 -113,-7 -196,-50 -248,-132 65,-13 130,-14 202,-5 -107,-27 -196,-76 -267,-150 87,-3 175,4 266,20 -129,-29 -250,-73 -339,-168 86,-21 177,-2 270,26 -114,-14 -220,-63 -310,-198z"/>
  <path class="fil1 str3" d="M1958 1369l494 182 -64 70 -113 -89c-150,-22 -271,-66 -316,-163z"/>
  <path class="fil1 str1" d="M2376 1637l-389 -124c81,97 199,130 322,154l47 59 21 -89z"/>
  <path class="fil1 str1" d="M2374 1806l-27 -58 -286 -76c69,77 180,116 313,134z"/>
  <path class="fil1 str1" d="M2389 1876c-96,-1 -186,-23 -273,-53 67,92 177,111 303,105l-29 -52z"/>
  <path class="fil1 str1" d="M1976 2008c134,48 289,23 462,-61l46 42c-96,7 -232,70 -328,77 -82,10 -145,-4 -179,-58z"/>
  <path class="fil1 str1" d="M2500 2011l-410 160c77,60 234,-4 430,-128l-363 253c113,-16 251,-52 417,-260l-75 -26z"/>
  <path class="fil1 str1" d="M2594 2064c-6,99 -125,191 -232,283 111,-39 215,-129 300,-272l-68 -11z"/>
  <path class="fil1 str1" d="M2730 2090c-43,135 -122,204 -189,235 59,-69 122,-153 133,-250l57 15z"/>
  <path class="fil1 str1" d="M2747 2092c21,90 -20,169 -74,245l200 -215c-41,182 -101,285 -186,287 62,19 143,-45 224,-108l6 -165 -171 -44z"/>
  <path class="fil1 str1" d="M2912 2342l-53 107c-75,183 -162,304 -251,413l307 -357 -3 -164z"/>
  <polygon class="fil1 str1" points="2909,2568 2788,2892 2929,2610 "/>
  <polygon class="fil1 str1" points="2907,2737 2876,2931 2929,2937 "/>
  <polygon class="fil1 str1" points="2943,2734 2964,2940 3037,2933 "/>
  <path class="fil1 str1" d="M2957 2559c62,144 152,256 285,320 -74,19 -146,-2 -212,-122l-73 -198z"/>
  <path class="fil1 str1" d="M3408 1547c154,-23 308,-82 463,-154 -119,92 -267,160 -419,224l-44 -70z"/>
  <path class="fil1 str1" d="M3465 1644c131,-23 260,-75 388,-134 -104,117 -249,133 -372,206l-16 -72z"/>
  <path class="fil1 str1" d="M3479 1761c101,-11 202,-47 303,-87 -93,79 -208,112 -324,147l21 -61z"/>
  <path class="fil1 str1" d="M3444 1873c75,18 172,-14 273,-54 -32,71 -127,115 -277,117l4 -63z"/>
  <path class="fil1 str1" d="M3409 1950c110,70 252,90 403,95 -144,45 -285,27 -423,-70l20 -25z"/>
  <path class="fil1 str1" d="M3352 2024c100,98 229,146 386,145 -107,45 -245,17 -408,-120l22 -25z"/>
  <path class="fil1 str1" d="M3278 2085c105,125 238,187 389,211 -93,32 -221,-12 -401,-165l12 -46z"/>
  <path class="fil1 str1" d="M3201 2119c78,136 180,210 296,247 -93,2 -189,-25 -299,-182l2 -65z"/>
  <path class="fil1 str1" d="M3116 2132c25,103 110,174 212,236 -83,-14 -157,-60 -222,-143l10 -92z"/>
  <polygon class="fil1 str1" points="3038,2219 3151,2348 3048,2291 "/>
  <polygon class="fil1 str1" points="2955,2324 3102,2438 3082,2491 3069,2453 3016,2412 "/>
  <polygon class="fil1 str1" points="2915,2117 2751,1945 2910,1811 "/>
  <polygon class="fil1 str1" points="2915,1753 2820,1820 2900,1808 "/>
  <polygon class="fil2 str1" points="2913,1707 2795,1761 2833,1766 "/>
  <path class="fil1 str1" d="M2817 1691c0,0 48,-36 64,-36 16,0 50,10 27,33 -23,22 -79,22 -79,22l-12 -19z"/>
  <path class="fil3" d="M1700 1211l-146 -63 36 -193c350,-224 796,-306 1237,-322l-72 151c-331,28 -737,112 -1040,265l-16 161z"/>
  <path class="fil3" d="M2992 638l76 156c322,6 739,113 1054,268l8 161 148 -68 -23 -190c-409,-218 -868,-332 -1263,-328z"/>
  <path class="fil3" d="M1529 1882c31,397 126,751 289,1057l257 -367 -10 -199 -57 -55 65 -89 -72 -33 -9 -42 -68 -22 -178 234 -59 -320c-53,-34 -107,-66 -129,-146l39 -12 -66 -6z"/>
  <path class="fil3" d="M4294 1882c-31,397 -126,751 -289,1057l-257 -367 10 -199 57 -55 -65 -89 72 -33 9 -42 68 -22 178 234 59 -320c53,-34 107,-66 129,-146l-39 -12 66 -6z"/>
  <path class="fil4 str4" d="M2130 2646c549,487 1076,448 1583,-3l143 214c-624,542 -1248,571 -1872,-5l146 -206z"/>
  <path class="fil5 str2" d="M2134 2685c520,473 1092,440 1576,3l112 172c-590,501 -1215,528 -1810,-3l121 -172z"/>
  <path class="fil3" d="M1937 2892c259,344 669,597 990,746l-15 174c393,-176 818,-472 1058,-821l-86 -117c-259,344 -636,615 -957,764l-15 175c-393,-176 -821,-454 -1062,-803l86 -117z"/>
  <path class="fil6" d="M2273 2867l56 38 -11 16 -33 -23 -9 13 28 20 -10 15 -28 -20 -21 30 -23 -16 50 -73zm65 44l23 14 -35 57 36 23 -11 19 -60 -37 47 -75zm79 130l-28 -14 -11 11 -25 -13 70 -64 27 14 -11 94 -26 -13 3 -15zm4 -20l6 -33 -23 24 17 9zm64 -30l23 11 10 58 20 -45 24 11 -36 81 -24 -11 -10 -58 -20 44 -24 -11 36 -81zm87 37l26 9 -11 32 38 -22 35 12 -41 21 14 63 -32 -11 -6 -41 -18 9 -7 20 -26 -9 29 -84zm89 29l72 17 -4 18 -45 -10 -3 14 41 10 -4 18 -41 -10 -4 17 46 11 -5 20 -73 -17 20 -86zm68 107l11 -88 45 6c8,1 15,3 19,5 4,2 8,5 10,9 2,4 3,9 2,15 -1,5 -2,9 -5,12 -3,3 -6,6 -10,8 -2,1 -6,2 -10,2 3,1 5,3 7,4 1,1 2,3 4,5 2,3 3,5 3,6l10 27 -31 -4 -11 -29c-1,-4 -3,-6 -4,-7 -2,-2 -4,-3 -6,-3l-2 0 -5 36 -27 -3zm34 -49l12 1c1,0 4,0 7,0 2,0 3,-1 5,-2 1,-1 2,-3 2,-5 0,-3 0,-5 -2,-7 -2,-2 -5,-3 -10,-4l-12 -2 -2 18zm98 34l26 -1c1,4 2,7 3,10 3,4 7,5 12,6 4,0 7,-1 9,-3 2,-2 3,-4 3,-6 0,-2 -1,-4 -3,-6 -2,-2 -7,-4 -14,-5 -12,-3 -20,-7 -26,-11 -5,-5 -8,-10 -8,-17 0,-5 1,-9 4,-13 3,-4 7,-7 12,-9 5,-2 13,-3 22,-3 11,0 20,2 26,7 6,4 9,11 10,20l-26 1c-1,-4 -2,-7 -4,-9 -2,-2 -5,-3 -9,-3 -3,0 -6,1 -7,2 -2,1 -2,3 -2,5 0,1 1,3 2,4 1,1 4,2 9,3 12,3 20,5 26,8 5,3 9,6 11,10 2,4 3,8 3,13 0,6 -2,11 -5,16 -3,5 -8,8 -13,11 -6,2 -13,4 -21,3 -15,0 -26,-3 -31,-9 -6,-6 -9,-13 -10,-22zm86 -59l73 -7 2 19 -46 4 1 14 42 -4 2 18 -42 4 2 17 47 -4 2 20 -74 7 -8 -88zm149 34l25 3c0,7 -2,13 -4,18 -3,5 -6,9 -11,12 -5,3 -11,6 -19,7 -9,2 -17,2 -24,0 -7,-2 -13,-5 -18,-12 -6,-6 -10,-15 -12,-25 -3,-14 -1,-26 5,-35 6,-9 16,-15 30,-18 11,-2 20,-2 27,2 7,3 13,9 18,18l-23 10c-1,-2 -3,-4 -4,-5 -2,-2 -4,-3 -6,-4 -2,-1 -5,-1 -8,0 -6,1 -10,5 -13,10 -2,4 -2,10 0,18 2,10 5,16 8,19 4,3 8,4 13,3 5,-1 9,-3 11,-7 2,-3 3,-8 3,-14zm78 -72l27 -7 13 51c1,5 2,10 1,15 0,5 -2,9 -4,14 -3,4 -5,7 -9,10 -5,3 -11,6 -18,8 -4,1 -9,2 -14,3 -5,1 -10,1 -13,0 -4,-1 -7,-3 -11,-5 -4,-3 -6,-5 -8,-9 -3,-5 -5,-10 -6,-14l-13 -51 27 -7 13 53c1,5 3,8 7,10 3,2 7,2 12,1 5,-1 8,-3 10,-7 2,-3 2,-7 1,-12l-13 -53zm66 73l-30 -84 43 -15c8,-3 14,-4 19,-4 5,0 9,1 13,4 4,3 7,7 9,12 2,5 2,9 1,13 -1,4 -3,8 -5,11 -2,2 -4,4 -8,7 3,0 6,0 8,1 1,0 3,1 6,3 3,2 4,3 5,4l21 20 -29 10 -23 -21c-3,-3 -5,-4 -7,-5 -2,-1 -5,-1 -7,0l-2 1 12 34 -26 9zm8 -59l11 -4c1,0 3,-2 6,-4 2,-1 3,-2 3,-4 1,-2 1,-4 0,-5 -1,-3 -3,-4 -5,-5 -2,-1 -6,0 -10,1l-11 4 6 17zm50 -58l26 -10 33 83 -26 10 -33 -83zm31 -11l74 -38 10 20 -25 13 30 60 -24 12 -30 -60 -25 13 -10 -20zm74 -37l27 -15 30 17 1 -35 26 -15 -5 62 18 32 -24 13 -18 -32 -55 -28z"/>
  <path class="fil3" d="M2910 631l312 729c-221,-132 -434,-134 -641,-21l329 -707z"/>
  <path class="fil5" d="M2910 631l4 627c-153,-6 -250,31 -333,80l329 -707z"/>
 </g>
</svg>
