<svg width="68" height="57" viewBox="0 0 68 57" fill="none" xmlns="http://www.w3.org/2000/svg">
<path d="M34.1455 16.4485C32.9573 16.4485 31.7958 16.0961 30.8078 15.436C29.8198 14.7758 29.0498 13.8376 28.5951 12.7398C28.1404 11.642 28.0214 10.4341 28.2532 9.26868C28.485 8.10329 29.0572 7.03281 29.8974 6.19262C30.7376 5.35242 31.8081 4.78024 32.9735 4.54843C34.1389 4.31662 35.3468 4.43559 36.4446 4.89031C37.5423 5.34502 38.4806 6.11504 39.1408 7.10301C39.8009 8.09097 40.1533 9.25251 40.1533 10.4407C40.1514 12.0335 39.5179 13.5606 38.3916 14.6868C37.2653 15.8131 35.7383 16.4466 34.1455 16.4485ZM34.1455 6.14949C33.2968 6.14949 32.4671 6.40117 31.7614 6.87269C31.0557 7.34422 30.5057 8.01442 30.1809 8.79854C29.8561 9.58266 29.7712 10.4455 29.9367 11.2779C30.1023 12.1103 30.511 12.8749 31.1112 13.4751C31.7113 14.0752 32.4759 14.4839 33.3083 14.6495C34.1408 14.8151 35.0036 14.7301 35.7877 14.4053C36.5718 14.0805 37.242 13.5305 37.7136 12.8248C38.1851 12.1191 38.4368 11.2895 38.4368 10.4407C38.4355 9.30299 37.983 8.2122 37.1785 7.4077C36.374 6.6032 35.2833 6.1507 34.1455 6.14949ZM41.6638 56.5H35.9307C35.7031 56.5 35.4848 56.4096 35.3238 56.2486C35.1628 56.0877 35.0724 55.8694 35.0724 55.6418V41.9098C35.0719 41.5752 34.9543 41.2513 34.7401 40.9943C34.5259 40.7372 34.2285 40.5632 33.8995 40.5023C33.5705 40.5632 33.2731 40.7372 33.0589 40.9943C32.8447 41.2513 32.7271 41.5752 32.7266 41.9098V55.6418C32.7266 55.8694 32.6361 56.0877 32.4752 56.2486C32.3142 56.4096 32.0959 56.5 31.8683 56.5H26.1352C25.9076 56.5 25.6893 56.4096 25.5283 56.2486C25.3674 56.0877 25.277 55.8694 25.277 55.6418V28.4445L23.1302 30.3235C23.043 30.4012 22.9406 30.4599 22.8295 30.4957C22.7183 30.5316 22.6009 30.5438 22.4848 30.5317L8.89016 29.273C8.73099 29.2582 8.57912 29.1992 8.45166 29.1027C8.3242 29.0062 8.22622 28.8761 8.16876 28.7269C8.1113 28.5777 8.09665 28.4155 8.12646 28.2584C8.15626 28.1013 8.22934 27.9557 8.33745 27.838L10.6604 25.309C10.7877 25.1705 10.957 25.0776 11.1422 25.0447L21.0773 23.2641L25.5402 18.4407C25.6205 18.354 25.7178 18.2847 25.8261 18.2373C25.9344 18.1898 26.0513 18.1652 26.1695 18.165H29.8657C30.0075 18.1648 30.147 18.1999 30.2718 18.267C30.3967 18.3341 30.5029 18.4312 30.5809 18.5494C30.9477 19.1026 31.4389 19.5623 32.0151 19.8918C32.5914 20.2212 33.2367 20.4113 33.8995 20.4467C34.5623 20.4113 35.2076 20.2212 35.7838 19.8918C36.3601 19.5623 36.8512 19.1026 37.218 18.5494C37.2961 18.4312 37.4023 18.3341 37.5272 18.267C37.652 18.1999 37.7915 18.1648 37.9333 18.165H41.6294C41.7476 18.1651 41.8644 18.1895 41.9727 18.2368C42.081 18.284 42.1784 18.3531 42.2588 18.4396L46.7217 23.2641L56.6568 25.0447C56.8414 25.0775 57.0103 25.17 57.1374 25.3079L59.4604 27.8368C59.5688 27.9546 59.6422 28.1003 59.6722 28.2575C59.7022 28.4147 59.6876 28.5772 59.6301 28.7266C59.5726 28.876 59.4745 29.0063 59.3468 29.1028C59.2192 29.1994 59.0671 29.2583 58.9077 29.273L45.313 30.5317C45.1971 30.5429 45.0801 30.5301 44.9693 30.4943C44.8585 30.4585 44.7562 30.4003 44.6688 30.3235L42.522 28.4445V55.6418C42.522 55.8694 42.4316 56.0877 42.2706 56.2486C42.1097 56.4096 41.8914 56.5 41.6638 56.5ZM36.7889 54.7835H40.8055V26.5529C40.8056 26.388 40.8531 26.2267 40.9425 26.0881C41.0319 25.9496 41.1592 25.8397 41.3094 25.7716C41.4595 25.7035 41.6261 25.6801 41.7892 25.7042C41.9523 25.7283 42.105 25.7989 42.2291 25.9075L45.5224 28.7889L57.0253 27.7235L56.0697 26.6822L46.137 24.9028C45.9525 24.87 45.7838 24.778 45.6563 24.6407L41.2541 19.8814H38.3727C37.406 21.1162 35.9917 21.9204 34.4362 22.1198C34.3429 22.1531 34.2446 22.1701 34.1455 22.1701H33.6535C33.5544 22.1701 33.4561 22.1531 33.3628 22.1198C31.8073 21.9204 30.393 21.1162 29.4263 19.8814H26.5449L22.1426 24.6419C22.015 24.7787 21.8463 24.8703 21.662 24.9028L11.7292 26.6833L10.7737 27.7235L22.2765 28.7878L25.5699 25.9075C25.694 25.7989 25.8467 25.7283 26.0098 25.7042C26.1729 25.6801 26.3394 25.7035 26.4896 25.7716C26.6398 25.8397 26.7671 25.9496 26.8565 26.0881C26.9458 26.2267 26.9934 26.388 26.9935 26.5529V54.7835H31.0101V41.9098C31.0109 41.2562 31.2148 40.619 31.5937 40.0863C31.9725 39.5537 32.5076 39.152 33.1248 38.9368C33.2735 38.8237 33.4552 38.7626 33.642 38.7629H34.157C34.3438 38.7626 34.5255 38.8237 34.6742 38.9368C35.2914 39.152 35.8264 39.5537 36.2053 40.0863C36.5842 40.619 36.7881 41.2562 36.7889 41.9098V54.7835ZM11.0129 21.0258C9.03253 21.0258 7.09664 20.4385 5.45003 19.3383C3.80342 18.2381 2.52004 16.6743 1.76219 14.8447C1.00434 13.015 0.80605 11.0018 1.1924 9.05947C1.57875 7.11716 2.53238 5.33304 3.93271 3.93271C5.33304 2.53238 7.11716 1.57875 9.05947 1.1924C11.0018 0.80605 13.015 1.00434 14.8447 1.76219C16.6743 2.52004 18.2381 3.80342 19.3383 5.45003C20.4385 7.09664 21.0258 9.03253 21.0258 11.0129C21.0227 13.6675 19.9669 16.2126 18.0897 18.0897C16.2126 19.9669 13.6675 21.0227 11.0129 21.0258ZM11.0129 2.7165C9.37202 2.7165 7.768 3.20307 6.40366 4.11469C5.03933 5.02631 3.97596 6.32203 3.34802 7.838C2.72009 9.35397 2.55579 11.0221 2.87591 12.6314C3.19603 14.2408 3.98619 15.7191 5.14646 16.8793C6.30673 18.0396 7.785 18.8298 9.39435 19.1499C11.0037 19.47 12.6718 19.3057 14.1878 18.6778C15.7038 18.0498 16.9995 16.9865 17.9111 15.6221C18.8227 14.2578 19.3093 12.6538 19.3093 11.0129C19.3069 8.81329 18.432 6.70448 16.8766 5.14913C15.3213 3.59378 13.2125 2.71892 11.0129 2.7165ZM56.7861 21.0258C54.8057 21.0258 52.8698 20.4385 51.2232 19.3383C49.5766 18.2381 48.2932 16.6743 47.5354 14.8447C46.7775 13.015 46.5792 11.0018 46.9656 9.05947C47.3519 7.11716 48.3056 5.33304 49.7059 3.93271C51.1062 2.53238 52.8904 1.57875 54.8327 1.1924C56.775 0.80605 58.7882 1.00434 60.6179 1.76219C62.4475 2.52004 64.0113 3.80342 65.1115 5.45003C66.2117 7.09664 66.799 9.03253 66.799 11.0129C66.7959 13.6675 65.74 16.2126 63.8629 18.0897C61.9858 19.9669 59.4407 21.0227 56.7861 21.0258ZM56.7861 2.7165C55.1452 2.7165 53.5412 3.20307 52.1769 4.11469C50.8125 5.02631 49.7492 6.32203 49.1212 7.838C48.4933 9.35397 48.329 11.0221 48.6491 12.6314C48.9692 14.2408 49.7594 15.7191 50.9197 16.8793C52.0799 18.0396 53.5582 18.8298 55.1675 19.1499C56.7769 19.47 58.445 19.3057 59.961 18.6778C61.4769 18.0498 62.7727 16.9865 63.6843 15.6221C64.5959 14.2578 65.0825 12.6538 65.0825 11.0129C65.0801 8.81329 64.2052 6.70448 62.6498 5.14913C61.0945 3.59378 58.9857 2.71892 56.7861 2.7165Z" fill="#070710" stroke="#070710" stroke-width="0.5"/>
<path d="M56.7852 13.0155C56.5576 13.0155 56.3393 12.9251 56.1783 12.7641C56.0174 12.6031 55.927 12.3849 55.927 12.1572V6.43558C55.927 6.20796 56.0174 5.98966 56.1783 5.82871C56.3393 5.66775 56.5576 5.57733 56.7852 5.57733C57.0128 5.57733 57.2311 5.66775 57.3921 5.82871C57.553 5.98966 57.6435 6.20796 57.6435 6.43558V12.1572C57.6435 12.3849 57.553 12.6031 57.3921 12.7641C57.2311 12.9251 57.0128 13.0155 56.7852 13.0155ZM56.7852 16.4485C56.6156 16.4483 56.4498 16.3979 56.3088 16.3036C56.1678 16.2093 56.0579 16.0753 55.993 15.9186C55.9281 15.7618 55.9111 15.5894 55.9442 15.423C55.9772 15.2566 56.0588 15.1037 56.1787 14.9837C56.3404 14.8244 56.5582 14.7351 56.7852 14.7351C57.0122 14.7351 57.2301 14.8244 57.3917 14.9837C57.5524 15.1446 57.6427 15.3628 57.6427 15.5902C57.6427 15.8177 57.5524 16.0358 57.3917 16.1967C57.3122 16.2741 57.2191 16.3362 57.1171 16.3798C57.0124 16.4255 56.8994 16.4489 56.7852 16.4485ZM9.86769 14.1598C9.64014 14.1596 9.42199 14.0691 9.26119 13.9081L6.97253 11.6194C6.82093 11.4567 6.7384 11.2415 6.74232 11.0192C6.74624 10.7968 6.83632 10.5847 6.99356 10.4274C7.15081 10.2702 7.36295 10.1801 7.5853 10.1762C7.80764 10.1723 8.02283 10.2548 8.18552 10.4064L9.93177 12.1515L15.0526 8.05481C15.1402 7.98115 15.2416 7.92574 15.3509 7.89184C15.4601 7.85795 15.5751 7.84624 15.689 7.85741C15.8028 7.86858 15.9133 7.90241 16.0139 7.9569C16.1145 8.01139 16.2032 8.08545 16.2748 8.17471C16.3463 8.26398 16.3993 8.36666 16.4306 8.4767C16.462 8.58675 16.4709 8.70195 16.4571 8.81552C16.4432 8.92909 16.4068 9.03874 16.3499 9.13803C16.2931 9.23732 16.217 9.32423 16.126 9.39367L10.4044 13.971C10.2522 14.0933 10.0629 14.1599 9.86769 14.1598Z" fill="#070710" stroke="#070710" stroke-width="0.5"/>
</svg>
