<svg width="50" height="30" viewBox="0 0 50 30" fill="none" xmlns="http://www.w3.org/2000/svg">
<path fill-rule="evenodd" clip-rule="evenodd" d="M0 0.590149V23.2832H31.0931V21.6623H2.77777V2.21108H40.2776V3.92927H43.0554V0.590149H0ZM43.0554 8.69482C43.0554 9.59006 41.8118 10.3158 40.2776 10.3158C38.7435 10.3158 37.4999 9.59006 37.4999 8.69482C37.4999 7.79958 38.7435 7.07389 40.2776 7.07389C41.8118 7.07389 43.0554 7.79958 43.0554 8.69482ZM45.8332 8.69482C45.8332 10.4852 43.3458 11.9367 40.2776 11.9367C37.2094 11.9367 34.7221 10.4852 34.7221 8.69482C34.7221 6.90442 37.2094 5.45295 40.2776 5.45295C43.3458 5.45295 45.8332 6.90442 45.8332 8.69482Z" fill="black"/>
<path fill-rule="evenodd" clip-rule="evenodd" d="M33.4647 13.4196C34.2397 12.9881 35.2697 12.7474 36.3408 12.7474H42.0096C44.0428 12.7474 45.9359 13.1512 47.3946 13.955C48.7982 14.7283 49.5278 15.7193 49.8266 16.6586C50.2961 18.1351 49.8095 19.7491 48.6141 21.1792V27.7411C48.6141 28.7953 47.2288 29.6734 45.4282 29.7604C43.6278 29.8473 42.0139 29.1141 41.7169 28.0742L40.9752 25.4774L40.2335 28.0742C39.9366 29.1141 38.3226 29.8473 36.5222 29.7604C34.7218 29.6734 33.3363 28.7953 33.3363 27.7411V22.8817C33.3362 22.8779 33.3362 22.8741 33.3362 22.8702V20.1168C32.7077 20.3285 31.9901 20.4425 31.2529 20.4425H24.1667C21.8655 20.4425 20 19.354 20 18.0111C20 16.6683 21.8655 15.5797 24.1667 15.5797H29.5843L33.4647 13.4196ZM36.114 22.8587C36.1141 22.8625 36.1141 22.8663 36.1141 22.8702V27.7411C36.1141 27.952 36.3912 28.1275 36.7513 28.1449C37.1113 28.1624 37.4341 28.0157 37.4935 27.8077L38.9419 22.7369C39.0534 22.3461 39.6328 22.0597 40.3119 22.0597H41.6387C42.3176 22.0597 42.897 22.3461 43.0087 22.7369L44.4569 27.8077C44.5163 28.0157 44.8391 28.1624 45.1992 28.1449C45.5592 28.1275 45.8363 27.952 45.8363 27.7411V20.9871C45.8363 20.8574 45.8896 20.7296 45.992 20.6143C47.0645 19.406 47.4542 18.0825 47.0955 16.9544C46.8775 16.2692 46.3681 15.6187 45.4875 15.1335C44.5887 14.6383 43.397 14.3684 42.0096 14.3684H36.3413C35.9842 14.3684 35.6404 14.4486 35.382 14.5924L31.0991 16.9766C30.8408 17.1204 30.4975 17.2006 30.1404 17.2006H24.1667C23.3997 17.2006 22.7778 17.5635 22.7778 18.0111C22.7778 18.4587 23.3997 18.8216 24.1667 18.8216H31.2529C31.61 18.8216 31.9533 18.7413 32.2116 18.5976L33.7665 17.732C34.1686 17.5081 34.7608 17.4457 35.2718 17.5734C35.7826 17.701 36.114 17.9941 36.114 18.3184V22.8587Z" fill="black"/>
</svg>
